<?xml version="1.0" standalone="no"?>
<!DOCTYPE svg PUBLIC "-//W3C//DTD SVG 1.1//EN" "http://www.w3.org/Graphics/SVG/1.1/DTD/svg11.dtd" >
<svg xmlns="http://www.w3.org/2000/svg">
<metadata>Generated by IcoMoon</metadata>
<defs>
<font id="literotica" horiz-adv-x="1024">
<font-face units-per-em="1024" ascent="960" descent="-64" />
<missing-glyph horiz-adv-x="1024" />
<glyph unicode="&#x20;" horiz-adv-x="512" d="" />
<glyph unicode="&#xe900;" glyph-name="icon_quite_emoji" d="M512 960c-282.77 0-512-229.23-512-512s229.23-512 512-512c282.77 0 512 229.23 512 512v0c0 0.087 0 0.19 0 0.293 0 282.608-229.099 511.707-511.707 511.707-0.103 0-0.205 0-0.308 0h0.015zM256 598.089c3.719 37.241 34.892 66.081 72.801 66.081 40.396 0 73.143-32.747 73.143-73.143s-32.747-73.143-73.143-73.143c-2.455 0-4.882 0.121-7.275 0.357l0.303-0.024c-37.312 3.985-66.119 35.296-66.119 73.334 0 2.302 0.105 4.579 0.312 6.826l-0.021-0.289zM693.102 53.029l-177.883 114.103-177.591-114.103-47.397 72.558 143.945 92.453-138.971 87.771 47.397 74.021 172.617-110.885 172.91 110.885 47.397-74.021-138.971-87.771 143.945-92.453zM702.171 518.217c-2.178-0.23-4.705-0.361-7.262-0.361-40.396 0-73.143 32.747-73.143 73.143s32.747 73.143 73.143 73.143c37.899 0 69.065-28.824 72.773-65.746l0.025-0.307c0.219-2.126 0.344-4.594 0.344-7.091 0-37.838-28.732-68.965-65.568-72.755l-0.312-0.026z" />
<glyph unicode="&#xe901;" glyph-name="book-head" d="M1004.308 704v-608.492h-419.446c0-45.292-110.277-47.262-110.277 0h-454.892v602.585c0 51.2 68.923 68.923 106.338 90.585v45.292h33.477c147.692 1.969 265.846-7.877 354.462-70.892 9.846-7.877 21.662-7.877 33.477 0 86.646 63.015 206.769 72.862 352.492 70.892v-45.292c31.508-19.692 104.369-43.323 104.369-84.677zM419.446 166.4c-61.046 33.477-173.292 35.446-259.938 35.446v0h-33.477v541.538c-13.785-5.908-37.415-17.723-35.446-41.354v-535.631h328.862zM159.508 237.292c256 9.846 299.323-35.446 354.462-70.892v559.262c-92.554 55.138-212.677 74.831-354.462 72.862v-561.231zM547.446 166.4h1.969c49.231 33.477 90.585 74.831 299.323 72.862 5.908 0 11.815 0 17.723 0v559.262c-13.785 0-25.6 0-39.385 0v-139.815l-49.231 57.108-53.169-57.108v128c-66.954-9.846-126.031-29.538-177.231-61.046v-559.262zM890.092 201.846v0h-17.723c-5.908 0-9.846 0-25.6 0-72.862-1.969-155.569-7.877-204.8-35.446h291.446v541.538c0 13.785-21.662 29.538-33.477 35.446v-541.538h-9.846z" />
<glyph unicode="&#xe902;" glyph-name="pencil" d="M19.692 58.092h984.615v-61.17h-984.615v61.17zM632.123 776.862l135.877-135.877-403.692-403.692h-135.877v135.877zM779.815 893.046l106.338-104.369c7.877-7.877 7.877-21.662 0-31.508l-66.954-64.985c-7.877-7.877-21.662-7.877-29.538 0l-104.369 104.369c-9.846 9.846-9.846 23.631 0 31.508l64.985 64.985c7.877 7.877 21.662 7.877 29.538 0z" />
<glyph unicode="&#xe903;" glyph-name="user-head" d="M914.286 157.143q0-68.571-41.714-108.286t-110.857-39.714h-499.429q-69.143 0-110.857 39.714t-41.714 108.286q0 30.286 2 59.143t8 62.286 15.143 62 24.571 55.714 35.429 46.286 48.857 30.571 63.714 11.429q5.143 0 24-12.286t42.571-27.429 61.714-27.429 76.286-12.286 76.286 12.286 61.714 27.429 42.571 27.429 24 12.286q34.857 0 63.714-11.429t48.857-30.571 35.429-46.286 24.571-55.714 15.143-62 8-62.286 2-59.143zM731.429 667.429q0-90.857-64.286-155.143t-155.143-64.286-155.143 64.286-64.286 155.143 64.286 155.143 155.143 64.286 155.143-64.286 64.286-155.143z" />
<glyph unicode="&#xe904;" glyph-name="book" d="M973.143 686.857q22.857-32.571 10.286-73.714l-157.143-517.714q-10.857-36.571-43.714-61.429t-70-24.857h-527.429q-44 0-84.857 30.571t-56.857 75.143q-13.714 38.286-1.143 72.571 0 2.286 1.714 15.429t2.286 21.143q0.571 4.571-1.714 12.286t-1.714 11.143q1.143 6.286 4.571 12t9.429 13.429 9.429 13.429q13.143 21.714 25.714 52.286t17.143 52.286q1.714 5.714 0.286 17.143t-0.286 16q1.714 6.286 9.714 16t9.714 13.143q12 20.571 24 52.571t14.286 51.429q0.571 5.143-1.429 18.286t0.286 16q2.286 7.429 12.571 17.429t12.571 12.857q10.857 14.857 24.286 48.286t15.714 55.143q0.571 4.571-1.714 14.571t-1.143 15.143q1.143 4.571 5.143 10.286t10.286 13.143 9.714 12q4.571 6.857 9.429 17.429t8.571 20 9.143 20.571 11.143 18.286 15.143 13.429 20.571 6.571 27.143-3.143l-0.571-1.714q21.714 5.143 29.143 5.143h434.857q42.286 0 65.143-32t10.286-74.286l-156.571-517.714q-20.571-68-40.857-87.714t-73.429-19.714h-496.571q-15.429 0-21.714-8.571-6.286-9.143-0.571-24.571 13.714-40 82.286-40h527.429q16.571 0 32 8.857t20 23.714l171.429 564q4 12.571 2.857 32.571 21.714-8.571 33.714-24.571zM365.143 685.714q-2.286-7.429 1.143-12.857t11.429-5.429h347.429q7.429 0 14.571 5.429t9.429 12.857l12 36.571q2.286 7.429-1.143 12.857t-11.429 5.429h-347.429q-7.429 0-14.571-5.429t-9.429-12.857zM317.714 539.429q-2.286-7.429 1.143-12.857t11.429-5.429h347.429q7.429 0 14.571 5.429t9.429 12.857l12 36.571q2.286 7.429-1.143 12.857t-11.429 5.429h-347.429q-7.429 0-14.571-5.429t-9.429-12.857z" />
<glyph unicode="&#xe905;" glyph-name="bookmark" d="M811.429 886.857q13.143 0 25.143-5.143 18.857-7.429 30-23.429t11.143-35.429v-736.571q0-19.429-11.143-35.429t-30-23.429q-10.857-4.571-25.143-4.571-27.429 0-47.429 18.286l-252 242.286-252-242.286q-20.571-18.857-47.429-18.857-13.143 0-25.143 5.143-18.857 7.429-30 23.429t-11.143 35.429v736.571q0 19.429 11.143 35.429t30 23.429q12 5.143 25.143 5.143h598.857z" />
<glyph unicode="&#xe906;" glyph-name="cog" d="M658.286 448q0 60.571-42.857 103.429t-103.429 42.857-103.429-42.857-42.857-103.429 42.857-103.429 103.429-42.857 103.429 42.857 42.857 103.429zM950.857 510.286v-126.857q0-6.857-4.571-13.143t-11.429-7.429l-105.714-16q-10.857-30.857-22.286-52 20-28.571 61.143-78.857 5.714-6.857 5.714-14.286t-5.143-13.143q-15.429-21.143-56.571-61.714t-53.714-40.571q-6.857 0-14.857 5.143l-78.857 61.714q-25.143-13.143-52-21.714-9.143-77.714-16.571-106.286-4-16-20.571-16h-126.857q-8 0-14 4.857t-6.571 12.286l-16 105.143q-28 9.143-51.429 21.143l-80.571-61.143q-5.714-5.143-14.286-5.143-8 0-14.286 6.286-72 65.143-94.286 96-4 5.714-4 13.143 0 6.857 4.571 13.143 8.571 12 29.143 38t30.857 40.286q-15.429 28.571-23.429 56.571l-104.571 15.429q-7.429 1.143-12 7.143t-4.571 13.429v126.857q0 6.857 4.571 13.143t10.857 7.429l106.286 16q8 26.286 22.286 52.571-22.857 32.571-61.143 78.857-5.714 6.857-5.714 13.714 0 5.714 5.143 13.143 14.857 20.571 56.286 61.429t54 40.857q7.429 0 14.857-5.714l78.857-61.143q25.143 13.143 52 21.714 9.143 77.714 16.571 106.286 4 16 20.571 16h126.857q8 0 14-4.857t6.571-12.286l16-105.143q28-9.143 51.429-21.143l81.143 61.143q5.143 5.143 13.714 5.143 7.429 0 14.286-5.714 73.714-68 94.286-97.143 4-4.571 4-12.571 0-6.857-4.571-13.143-8.571-12-29.143-38t-30.857-40.286q14.857-28.571 23.429-56l104.571-16q7.429-1.143 12-7.143t4.571-13.429z" />
<glyph unicode="&#xe907;" glyph-name="envelope-o" d="M950.857 100.571v438.857q-18.286-20.571-39.429-37.714-153.143-117.714-243.429-193.143-29.143-24.571-47.429-38.286t-49.429-27.714-58.571-14h-1.143q-27.429 0-58.571 14t-49.429 27.714-47.429 38.286q-90.286 75.429-243.429 193.143-21.143 17.143-39.429 37.714v-438.857q0-7.429 5.429-12.857t12.857-5.429h841.143q7.429 0 12.857 5.429t5.429 12.857zM950.857 701.143v14l-0.286 7.429-1.714 7.143-3.143 5.143-5.143 4.286-8 1.429h-841.143q-7.429 0-12.857-5.429t-5.429-12.857q0-96 84-162.286 110.286-86.857 229.143-181.143 3.429-2.857 20-16.857t26.286-21.429 25.429-18 28.857-15.714 24.571-5.143h1.143q11.429 0 24.571 5.143t28.857 15.714 25.429 18 26.286 21.429 20 16.857q118.857 94.286 229.143 181.143 30.857 24.571 57.429 66t26.571 75.143zM1024 722.286v-621.714q0-37.714-26.857-64.571t-64.571-26.857h-841.143q-37.714 0-64.571 26.857t-26.857 64.571v621.714q0 37.714 26.857 64.571t64.571 26.857h841.143q37.714 0 64.571-26.857t26.857-64.571z" />
<glyph unicode="&#xe908;" glyph-name="files-o" d="M969.143 740.571q22.857 0 38.857-16t16-38.857v-694.857q0-22.857-16-38.857t-38.857-16h-548.571q-22.857 0-38.857 16t-16 38.857v164.571h-310.857q-22.857 0-38.857 16t-16 38.857v384q0 22.857 11.429 50.286t27.429 43.429l233.143 233.143q16 16 43.429 27.429t50.286 11.429h237.714q22.857 0 38.857-16t16-38.857v-187.429q38.857 22.857 73.143 22.857h237.714zM658.286 618.857l-170.857-170.857h170.857v170.857zM292.571 838.286l-170.857-170.857h170.857v170.857zM404.571 468.571l180.571 180.571v237.714h-219.429v-237.714q0-22.857-16-38.857t-38.857-16h-237.714v-365.714h292.571v146.286q0 22.857 11.429 50.286t27.429 43.429zM950.857 9.143v658.286h-219.429v-237.714q0-22.857-16-38.857t-38.857-16h-237.714v-365.714h512z" />
<glyph unicode="&#xe909;" glyph-name="home" d="M841.143 393.143v-274.286q0-14.857-10.857-25.714t-25.714-10.857h-219.429v219.429h-146.286v-219.429h-219.429q-14.857 0-25.714 10.857t-10.857 25.714v274.286q0 0.571 0.286 1.714t0.286 1.714l328.571 270.857 328.571-270.857q0.571-1.143 0.571-3.429zM968.571 432.571l-35.429-42.286q-4.571-5.143-12-6.286h-1.714q-7.429 0-12 4l-395.429 329.714-395.429-329.714q-6.857-4.571-13.714-4-7.429 1.143-12 6.286l-35.429 42.286q-4.571 5.714-4 13.429t6.286 12.286l410.857 342.286q18.286 14.857 43.429 14.857t43.429-14.857l139.429-116.571v111.429q0 8 5.143 13.143t13.143 5.143h109.714q8 0 13.143-5.143t5.143-13.143v-233.143l125.143-104q5.714-4.571 6.286-12.286t-4-13.429z" />
<glyph unicode="&#xe90a;" glyph-name="question-circle2" d="M585.143 173.714v109.714q0 8-5.143 13.143t-13.143 5.143h-109.714q-8 0-13.143-5.143t-5.143-13.143v-109.714q0-8 5.143-13.143t13.143-5.143h109.714q8 0 13.143 5.143t5.143 13.143zM731.429 557.714q0 50.286-31.714 93.143t-79.143 66.286-97.143 23.429q-138.857 0-212-121.714-8.571-13.714 4.571-24l75.429-57.143q4-3.429 10.857-3.429 9.143 0 14.286 6.857 30.286 38.857 49.143 52.571 19.429 13.714 49.143 13.714 27.429 0 48.857-14.857t21.429-33.714q0-21.714-11.429-34.857t-38.857-25.714q-36-16-66-49.429t-30-71.714v-20.571q0-8 5.143-13.143t13.143-5.143h109.714q8 0 13.143 5.143t5.143 13.143q0 10.857 12.286 28.286t31.143 28.286q18.286 10.286 28 16.286t26.286 20 25.429 27.429 16 34.571 7.143 46.286zM950.857 448q0-119.429-58.857-220.286t-159.714-159.714-220.286-58.857-220.286 58.857-159.714 159.714-58.857 220.286 58.857 220.286 159.714 159.714 220.286 58.857 220.286-58.857 159.714-159.714 58.857-220.286z" />
<glyph unicode="&#xe90b;" glyph-name="sign-out" d="M402.286 137.143q0-2.286 0.571-11.429t0.286-15.143-1.714-13.429-5.714-11.143-11.714-3.714h-182.857q-68 0-116.286 48.286t-48.286 116.286v402.286q0 68 48.286 116.286t116.286 48.286h182.857q7.429 0 12.857-5.429t5.429-12.857q0-2.286 0.571-11.429t0.286-15.143-1.714-13.429-5.714-11.143-11.714-3.714h-182.857q-37.714 0-64.571-26.857t-26.857-64.571v-402.286q0-37.714 26.857-64.571t64.571-26.857h178.286l6.571-0.571 6.571-1.714 4.571-3.143 4-5.143 1.143-7.714zM932.571 448q0-14.857-10.857-25.714l-310.857-310.857q-10.857-10.857-25.714-10.857t-25.714 10.857-10.857 25.714v164.571h-256q-14.857 0-25.714 10.857t-10.857 25.714v219.429q0 14.857 10.857 25.714t25.714 10.857h256v164.571q0 14.857 10.857 25.714t25.714 10.857 25.714-10.857l310.857-310.857q10.857-10.857 10.857-25.714z" />
<glyph unicode="&#xe90c;" glyph-name="trophy" d="M298.286 455.429q-42.286 92.571-42.286 212h-146.286v-54.857q0-44.571 54-92.571t134.571-64.571zM914.286 612.571v54.857h-146.286q0-119.429-42.286-212 80.571 16.571 134.571 64.571t54 92.571zM987.429 685.714v-73.143q0-40.571-23.714-81.714t-64-74.286-98.857-55.714-123.143-25.429q-24-30.857-54.286-54.286-21.714-19.429-30-41.429t-8.286-51.143q0-30.857 17.429-52t55.714-21.143q42.857 0 76.286-26t33.429-65.429v-36.571q0-8-5.143-13.143t-13.143-5.143h-475.429q-8 0-13.143 5.143t-5.143 13.143v36.571q0 39.429 33.429 65.429t76.286 26q38.286 0 55.714 21.143t17.429 52q0 29.143-8.286 51.143t-30 41.429q-30.286 23.429-54.286 54.286-64.571 2.857-123.143 25.429t-98.857 55.714-64 74.286-23.714 81.714v73.143q0 22.857 16 38.857t38.857 16h164.571v54.857q0 37.714 26.857 64.571t64.571 26.857h329.143q37.714 0 64.571-26.857t26.857-64.571v-54.857h164.571q22.857 0 38.857-16t16-38.857z" />
<glyph unicode="&#xe90d;" glyph-name="user-plus" d="M329.143 448q-90.857 0-155.143 64.286t-64.286 155.143 64.286 155.143 155.143 64.286 155.143-64.286 64.286-155.143-64.286-155.143-155.143-64.286zM877.714 374.857h201.143q7.429 0 12.857-5.429t5.429-12.857v-109.714q0-7.429-5.429-12.857t-12.857-5.429h-201.143v-201.143q0-7.429-5.429-12.857t-12.857-5.429h-109.714q-7.429 0-12.857 5.429t-5.429 12.857v201.143h-201.143q-7.429 0-12.857 5.429t-5.429 12.857v109.714q0 7.429 5.429 12.857t12.857 5.429h201.143v201.143q0 7.429 5.429 12.857t12.857 5.429h109.714q7.429 0 12.857-5.429t5.429-12.857v-201.143zM457.143 246.857q0-29.714 21.714-51.429t51.429-21.714h146.286v-136q-38.857-28.571-97.714-28.571h-499.429q-69.143 0-110.857 39.429t-41.714 108.571q0 30.286 2 59.143t8 62.286 15.143 62 24.571 55.714 35.429 46.286 48.857 30.571 63.714 11.429q10.857 0 22.286-9.714 45.143-34.857 88.286-52.286t94-17.429 94 17.429 88.286 52.286q11.429 9.714 22.286 9.714 75.429 0 124-54.857h-127.429q-29.714 0-51.429-21.714t-21.714-51.429v-109.714z" />
<glyph unicode="&#xe90e;" glyph-name="user" d="M914.286 157.143q0-68.571-41.714-108.286t-110.857-39.714h-499.429q-69.143 0-110.857 39.714t-41.714 108.286q0 30.286 2 59.143t8 62.286 15.143 62 24.571 55.714 35.429 46.286 48.857 30.571 63.714 11.429q5.143 0 24-12.286t42.571-27.429 61.714-27.429 76.286-12.286 76.286 12.286 61.714 27.429 42.571 27.429 24 12.286q34.857 0 63.714-11.429t48.857-30.571 35.429-46.286 24.571-55.714 15.143-62 8-62.286 2-59.143zM731.429 667.429q0-90.857-64.286-155.143t-155.143-64.286-155.143 64.286-64.286 155.143 64.286 155.143 155.143 64.286 155.143-64.286 64.286-155.143z" />
<glyph unicode="&#xe90f;" glyph-name="story" d="M912 688q8-8 16-20.571h-269.714v269.714q12.571-8 20.571-16zM640 594.286h310.857v-603.429q0-22.857-16-38.857t-38.857-16h-768q-22.857 0-38.857 16t-16 38.857v914.286q0 22.857 16 38.857t38.857 16h457.143v-310.857q0-22.857 16-38.857t38.857-16zM731.429 173.714v36.571q0 8-5.143 13.143t-13.143 5.143h-402.286q-8 0-13.143-5.143t-5.143-13.143v-36.571q0-8 5.143-13.143t13.143-5.143h402.286q8 0 13.143 5.143t5.143 13.143zM731.429 320v36.571q0 8-5.143 13.143t-13.143 5.143h-402.286q-8 0-13.143-5.143t-5.143-13.143v-36.571q0-8 5.143-13.143t13.143-5.143h402.286q8 0 13.143 5.143t5.143 13.143zM731.429 466.286v36.571q0 8-5.143 13.143t-13.143 5.143h-402.286q-8 0-13.143-5.143t-5.143-13.143v-36.571q0-8 5.143-13.143t13.143-5.143h402.286q8 0 13.143 5.143t5.143 13.143z" />
<glyph unicode="&#xe910;" glyph-name="poem" d="M914.286 594.286q0 45.714-32 77.714t-77.714 32h-36.571v-219.429h36.571q45.714 0 77.714 32t32 77.714zM-36.571 155.429h1024q0-60.571-42.857-103.429t-103.429-42.857h-731.429q-60.571 0-103.429 42.857t-42.857 103.429zM1024 594.286q0-90.857-64.286-155.143t-155.143-64.286h-36.571v-18.286q0-52.571-37.714-90.286t-90.286-37.714h-402.286q-52.571 0-90.286 37.714t-37.714 90.286v420.571q0 14.857 10.857 25.714t25.714 10.857h658.286q90.857 0 155.143-64.286t64.286-155.143z" />
<glyph unicode="&#xe911;" glyph-name="artwork" d="M329.143 630.857q0-45.714-32-77.714t-77.714-32-77.714 32-32 77.714 32 77.714 77.714 32 77.714-32 32-77.714zM914.286 411.429v-256h-804.571v109.714l182.857 182.857 91.429-91.429 292.571 292.571zM969.143 813.714h-914.286q-7.429 0-12.857-5.429t-5.429-12.857v-694.857q0-7.429 5.429-12.857t12.857-5.429h914.286q7.429 0 12.857 5.429t5.429 12.857v694.857q0 7.429-5.429 12.857t-12.857 5.429zM1060.571 795.429v-694.857q0-37.714-26.857-64.571t-64.571-26.857h-914.286q-37.714 0-64.571 26.857t-26.857 64.571v694.857q0 37.714 26.857 64.571t64.571 26.857h914.286q37.714 0 64.571-26.857t26.857-64.571z" />
<glyph unicode="&#xe912;" glyph-name="align-left" d="M1024 192v-73.143q0-14.857-10.857-25.714t-25.714-10.857h-950.857q-14.857 0-25.714 10.857t-10.857 25.714v73.143q0 14.857 10.857 25.714t25.714 10.857h950.857q14.857 0 25.714-10.857t10.857-25.714zM804.571 411.429v-73.143q0-14.857-10.857-25.714t-25.714-10.857h-731.429q-14.857 0-25.714 10.857t-10.857 25.714v73.143q0 14.857 10.857 25.714t25.714 10.857h731.429q14.857 0 25.714-10.857t10.857-25.714zM950.857 630.857v-73.143q0-14.857-10.857-25.714t-25.714-10.857h-877.714q-14.857 0-25.714 10.857t-10.857 25.714v73.143q0 14.857 10.857 25.714t25.714 10.857h877.714q14.857 0 25.714-10.857t10.857-25.714zM731.429 850.286v-73.143q0-14.857-10.857-25.714t-25.714-10.857h-658.286q-14.857 0-25.714 10.857t-10.857 25.714v73.143q0 14.857 10.857 25.714t25.714 10.857h658.286q14.857 0 25.714-10.857t10.857-25.714z" />
<glyph unicode="&#xe913;" glyph-name="coffee" d="M914.286 594.286q0 45.714-32 77.714t-77.714 32h-36.571v-219.429h36.571q45.714 0 77.714 32t32 77.714zM-36.571 155.429h1024q0-60.571-42.857-103.429t-103.429-42.857h-731.429q-60.571 0-103.429 42.857t-42.857 103.429zM1024 594.286q0-90.857-64.286-155.143t-155.143-64.286h-36.571v-18.286q0-52.571-37.714-90.286t-90.286-37.714h-402.286q-52.571 0-90.286 37.714t-37.714 90.286v420.571q0 14.857 10.857 25.714t25.714 10.857h658.286q90.857 0 155.143-64.286t64.286-155.143z" />
<glyph unicode="&#xe914;" glyph-name="comment-o" d="M512 740.571q-116.571 0-218-39.714t-161.143-107.143-59.714-145.714q0-64 40.857-122t115.143-100.286l49.714-28.571-15.429-54.857q-13.714-52-40-98.286 86.857 36 157.143 97.714l24.571 21.714 32.571-3.429q39.429-4.571 74.286-4.571 116.571 0 218 39.714t161.143 107.143 59.714 145.714-59.714 145.714-161.143 107.143-218 39.714zM1024 448q0-99.429-68.571-183.714t-186.286-133.143-257.143-48.857q-40 0-82.857 4.571-113.143-100-262.857-138.286-28-8-65.143-12.571h-2.857q-8.571 0-15.429 6t-9.143 15.714v0.571q-1.714 2.286-0.286 6.857t1.143 5.714 2.571 5.429l3.429 5.143 4 4.857 4.571 5.143q4 4.571 17.714 19.714t19.714 21.714 17.714 22.571 18.571 29.143 15.429 33.714 14.857 43.429q-89.714 50.857-141.429 125.714t-51.714 160.571q0 99.429 68.571 183.714t186.286 133.143 257.143 48.857 257.143-48.857 186.286-133.143 68.571-183.714z" />
<glyph unicode="&#xe915;" glyph-name="comments-o" d="M402.286 740.571q-87.429 0-163.429-29.714t-120.857-80.571-44.857-109.143q0-46.857 30.286-90.286t85.143-75.429l55.429-32-20-48q19.429 11.429 35.429 22.286l25.143 17.714 30.286-5.714q44.571-8 87.429-8 87.429 0 163.429 29.714t120.857 80.571 44.857 109.143-44.857 109.143-120.857 80.571-163.429 29.714zM402.286 813.714q109.143 0 202-39.143t146.571-106.571 53.714-146.857-53.714-146.857-146.571-106.571-202-39.143q-49.143 0-100.571 9.143-70.857-50.286-158.857-73.143-20.571-5.143-49.143-9.143h-1.714q-6.286 0-11.714 4.571t-6.571 12q-0.571 1.714-0.571 3.714t0.286 3.714 1.143 3.429l1.429 2.857 2 3.143 2.286 2.857 2.571 2.857 2.286 2.571q2.857 3.429 13.143 14.286t14.857 16.857 12.857 16.571 14.286 22 11.714 25.143q-70.857 41.143-111.429 101.143t-40.571 128q0 79.429 53.714 146.857t146.571 106.571 202 39.143zM872 145.714q5.714-13.714 11.714-25.143t14.286-22 12.857-16.571 14.857-16.857 13.143-14.286q0.571-0.571 2.286-2.571t2.571-2.857 2.286-2.857 2-3.143l1.429-2.857 1.143-3.429 0.286-3.714-0.571-3.714q-1.714-8-7.429-12.571t-12.571-4q-28.571 4-49.143 9.143-88 22.857-158.857 73.143-51.429-9.143-100.571-9.143-154.857 0-269.714 75.429 33.143-2.286 50.286-2.286 92 0 176.571 25.714t150.857 73.714q71.429 52.571 109.714 121.143t38.286 145.143q0 44-13.143 86.857 73.714-40.571 116.571-101.714t42.857-131.429q0-68.571-40.571-128.286t-111.429-100.857z" />
<glyph unicode="&#xe916;" glyph-name="film" d="M182.857 45.714v73.143q0 14.857-10.857 25.714t-25.714 10.857h-73.143q-14.857 0-25.714-10.857t-10.857-25.714v-73.143q0-14.857 10.857-25.714t25.714-10.857h73.143q14.857 0 25.714 10.857t10.857 25.714zM182.857 265.143v73.143q0 14.857-10.857 25.714t-25.714 10.857h-73.143q-14.857 0-25.714-10.857t-10.857-25.714v-73.143q0-14.857 10.857-25.714t25.714-10.857h73.143q14.857 0 25.714 10.857t10.857 25.714zM182.857 484.571v73.143q0 14.857-10.857 25.714t-25.714 10.857h-73.143q-14.857 0-25.714-10.857t-10.857-25.714v-73.143q0-14.857 10.857-25.714t25.714-10.857h73.143q14.857 0 25.714 10.857t10.857 25.714zM768 45.714v292.571q0 14.857-10.857 25.714t-25.714 10.857h-438.857q-14.857 0-25.714-10.857t-10.857-25.714v-292.571q0-14.857 10.857-25.714t25.714-10.857h438.857q14.857 0 25.714 10.857t10.857 25.714zM182.857 704v73.143q0 14.857-10.857 25.714t-25.714 10.857h-73.143q-14.857 0-25.714-10.857t-10.857-25.714v-73.143q0-14.857 10.857-25.714t25.714-10.857h73.143q14.857 0 25.714 10.857t10.857 25.714zM987.429 45.714v73.143q0 14.857-10.857 25.714t-25.714 10.857h-73.143q-14.857 0-25.714-10.857t-10.857-25.714v-73.143q0-14.857 10.857-25.714t25.714-10.857h73.143q14.857 0 25.714 10.857t10.857 25.714zM768 484.571v292.571q0 14.857-10.857 25.714t-25.714 10.857h-438.857q-14.857 0-25.714-10.857t-10.857-25.714v-292.571q0-14.857 10.857-25.714t25.714-10.857h438.857q14.857 0 25.714 10.857t10.857 25.714zM987.429 265.143v73.143q0 14.857-10.857 25.714t-25.714 10.857h-73.143q-14.857 0-25.714-10.857t-10.857-25.714v-73.143q0-14.857 10.857-25.714t25.714-10.857h73.143q14.857 0 25.714 10.857t10.857 25.714zM987.429 484.571v73.143q0 14.857-10.857 25.714t-25.714 10.857h-73.143q-14.857 0-25.714-10.857t-10.857-25.714v-73.143q0-14.857 10.857-25.714t25.714-10.857h73.143q14.857 0 25.714 10.857t10.857 25.714zM987.429 704v73.143q0 14.857-10.857 25.714t-25.714 10.857h-73.143q-14.857 0-25.714-10.857t-10.857-25.714v-73.143q0-14.857 10.857-25.714t25.714-10.857h73.143q14.857 0 25.714 10.857t10.857 25.714zM1060.571 795.429v-768q0-37.714-26.857-64.571t-64.571-26.857h-914.286q-37.714 0-64.571 26.857t-26.857 64.571v768q0 37.714 26.857 64.571t64.571 26.857h914.286q37.714 0 64.571-26.857t26.857-64.571z" />
<glyph unicode="&#xe917;" glyph-name="gift" d="M603.429 185.143v409.143h-182.857v-409.143q0-14.286 10.286-22t26.286-7.714h109.714q16 0 26.286 7.714t10.286 22zM342.857 667.429h111.429l-72 92q-14.857 17.714-39.429 17.714-22.857 0-38.857-16t-16-38.857 16-38.857 38.857-16zM736 722.286q0 22.857-16 38.857t-38.857 16q-24.571 0-39.429-17.714l-71.429-92h110.857q22.857 0 38.857 16t16 38.857zM950.857 576v-182.857q0-8-5.143-13.143t-13.143-5.143h-54.857v-237.714q0-22.857-16-38.857t-38.857-16h-621.714q-22.857 0-38.857 16t-16 38.857v237.714h-54.857q-8 0-13.143 5.143t-5.143 13.143v182.857q0 8 5.143 13.143t13.143 5.143h251.429q-53.143 0-90.571 37.429t-37.429 90.571 37.429 90.571 90.571 37.429q61.143 0 96-44l73.143-94.286 73.143 94.286q34.857 44 96 44 53.143 0 90.571-37.429t37.429-90.571-37.429-90.571-90.571-37.429h251.429q8 0 13.143-5.143t5.143-13.143z" />
<glyph unicode="&#xe918;" glyph-name="heart" d="M512 9.143q-14.857 0-25.143 10.286l-356.571 344q-5.714 4.571-15.714 14.857t-31.714 37.429-38.857 55.714-30.571 69.143-13.429 78.857q0 125.714 72.571 196.571t200.571 70.857q35.429 0 72.286-12.286t68.571-33.143 54.571-39.143 43.429-38.857q20.571 20.571 43.429 38.857t54.571 39.143 68.571 33.143 72.286 12.286q128 0 200.571-70.857t72.571-196.571q0-126.286-130.857-257.143l-356-342.857q-10.286-10.286-25.143-10.286z" />
<glyph unicode="&#xe919;" glyph-name="lightbulb-o" d="M640 630.857q0-7.429-5.429-12.857t-12.857-5.429-12.857 5.429-5.429 12.857q0 26.286-30.857 40.571t-60.571 14.286q-7.429 0-12.857 5.429t-5.429 12.857 5.429 12.857 12.857 5.429q28.571 0 56.857-9.143t49.714-30.857 21.429-51.429zM731.429 630.857q0 41.143-19.714 76.571t-51.429 58-70.286 35.429-78 12.857-78-12.857-70.286-35.429-51.429-58-19.714-76.571q0-57.714 38.857-102.857 5.714-6.286 17.429-18.857t17.429-18.857q73.143-87.429 80.571-170.286h130.286q7.429 82.857 80.571 170.286 5.714 6.286 17.429 18.857t17.429 18.857q38.857 45.143 38.857 102.857zM804.571 630.857q0-88.571-58.857-153.143-25.714-28-42.571-49.714t-34-54.571-19.429-61.429q26.857-16 26.857-46.857 0-21.143-14.286-36.571 14.286-15.429 14.286-36.571 0-29.714-25.714-46.286 7.429-13.143 7.429-26.857 0-26.286-18-40.571t-44.286-14.286q-11.429-25.143-34.286-40t-49.714-14.857-49.714 14.857-34.286 40q-26.286 0-44.286 14.286t-18 40.571q0 13.714 7.429 26.857-25.714 16.571-25.714 46.286 0 21.143 14.286 36.571-14.286 15.429-14.286 36.571 0 30.857 26.857 46.857-2.286 28.571-19.429 61.429t-34 54.571-42.571 49.714q-58.857 64.571-58.857 153.143 0 56.571 25.429 105.429t66.857 81.143 93.714 50.857 106.571 18.571 106.571-18.571 93.714-50.857 66.857-81.143 25.429-105.429z" />
<glyph unicode="&#xe91a;" glyph-name="picture-o" d="M329.143 630.857q0-45.714-32-77.714t-77.714-32-77.714 32-32 77.714 32 77.714 77.714 32 77.714-32 32-77.714zM914.286 411.429v-256h-804.571v109.714l182.857 182.857 91.429-91.429 292.571 292.571zM969.143 813.714h-914.286q-7.429 0-12.857-5.429t-5.429-12.857v-694.857q0-7.429 5.429-12.857t12.857-5.429h914.286q7.429 0 12.857 5.429t5.429 12.857v694.857q0 7.429-5.429 12.857t-12.857 5.429zM1060.571 795.429v-694.857q0-37.714-26.857-64.571t-64.571-26.857h-914.286q-37.714 0-64.571 26.857t-26.857 64.571v694.857q0 37.714 26.857 64.571t64.571 26.857h914.286q37.714 0 64.571-26.857t26.857-64.571z" />
<glyph unicode="&#xe91b;" glyph-name="question-circle22" d="M585.143 173.714v109.714q0 8-5.143 13.143t-13.143 5.143h-109.714q-8 0-13.143-5.143t-5.143-13.143v-109.714q0-8 5.143-13.143t13.143-5.143h109.714q8 0 13.143 5.143t5.143 13.143zM731.429 557.714q0 50.286-31.714 93.143t-79.143 66.286-97.143 23.429q-138.857 0-212-121.714-8.571-13.714 4.571-24l75.429-57.143q4-3.429 10.857-3.429 9.143 0 14.286 6.857 30.286 38.857 49.143 52.571 19.429 13.714 49.143 13.714 27.429 0 48.857-14.857t21.429-33.714q0-21.714-11.429-34.857t-38.857-25.714q-36-16-66-49.429t-30-71.714v-20.571q0-8 5.143-13.143t13.143-5.143h109.714q8 0 13.143 5.143t5.143 13.143q0 10.857 12.286 28.286t31.143 28.286q18.286 10.286 28 16.286t26.286 20 25.429 27.429 16 34.571 7.143 46.286zM950.857 448q0-119.429-58.857-220.286t-159.714-159.714-220.286-58.857-220.286 58.857-159.714 159.714-58.857 220.286 58.857 220.286 159.714 159.714 220.286 58.857 220.286-58.857 159.714-159.714 58.857-220.286z" />
<glyph unicode="&#xe91c;" glyph-name="search" d="M694.857 484.571q0 105.714-75.143 180.857t-180.857 75.143-180.857-75.143-75.143-180.857 75.143-180.857 180.857-75.143 180.857 75.143 75.143 180.857zM987.429 9.143q0-29.714-21.714-51.429t-51.429-21.714q-30.857 0-51.429 21.714l-196 195.429q-102.286-70.857-228-70.857-81.714 0-156.286 31.714t-128.571 85.714-85.714 128.571-31.714 156.286 31.714 156.286 85.714 128.571 128.571 85.714 156.286 31.714 156.286-31.714 128.571-85.714 85.714-128.571 31.714-156.286q0-125.714-70.857-228l196-196q21.143-21.143 21.143-51.429z" />
<glyph unicode="&#xe91d;" glyph-name="tags" d="M219.429 704q0 30.286-21.429 51.714t-51.714 21.429-51.714-21.429-21.429-51.714 21.429-51.714 51.714-21.429 51.714 21.429 21.429 51.714zM829.143 374.857q0-30.286-21.143-51.429l-280.571-281.143q-22.286-21.143-52-21.143-30.286 0-51.429 21.143l-408.571 409.143q-21.714 21.143-36.857 57.714t-15.143 66.857v237.714q0 29.714 21.714 51.429t51.429 21.714h237.714q30.286 0 66.857-15.143t58.286-36.857l408.571-408q21.143-22.286 21.143-52zM1048.571 374.857q0-30.286-21.143-51.429l-280.571-281.143q-22.286-21.143-52-21.143-20.571 0-33.714 8t-30.286 25.714l268.571 268.571q21.143 21.143 21.143 51.429 0 29.714-21.143 52l-408.571 408q-21.714 21.714-58.286 36.857t-66.857 15.143h128q30.286 0 66.857-15.143t58.286-36.857l408.571-408q21.143-22.286 21.143-52z" />
<glyph unicode="&#xe91e;" glyph-name="thumbs-up" d="M182.857 192q0 14.857-10.857 25.714t-25.714 10.857q-15.429 0-26-10.857t-10.571-25.714q0-15.429 10.571-26t26-10.571q14.857 0 25.714 10.571t10.857 26zM274.286 484.571v-365.714q0-14.857-10.857-25.714t-25.714-10.857h-164.571q-14.857 0-25.714 10.857t-10.857 25.714v365.714q0 14.857 10.857 25.714t25.714 10.857h164.571q14.857 0 25.714-10.857t10.857-25.714zM950.857 484.571q0-49.143-31.429-85.143 8.571-25.143 8.571-43.429 1.714-43.429-24.571-78.286 9.714-32 0-66.857-8.571-32.571-30.857-53.714 5.143-64-28-103.429-36.571-43.429-112.571-44.571h-73.714q-37.714 0-82.286 8.857t-69.429 16.571-68.857 22.571q-70.286 24.571-90.286 25.143-14.857 0.571-25.714 11.143t-10.857 25.429v366.286q0 14.286 10.286 24.857t24.571 11.714q13.714 1.143 43.429 33.714t57.714 69.143q38.857 49.714 57.714 68.571 10.286 10.286 17.714 27.429t10 27.714 7.714 34.571q4 22.286 7.143 34.857t11.143 29.714 19.429 28.571q10.857 10.857 25.714 10.857 26.286 0 47.143-6t34.286-14.857 22.857-23.143 13.714-25.714 6.857-28.571 2.857-25.714 0.286-22.286q0-21.714-5.429-43.429t-10.857-34.286-15.714-32q-1.714-3.429-5.714-10.286t-6.286-12.571-4.571-13.714h158.286q44.571 0 77.143-32.571t32.571-77.143z" />
<glyph unicode="&#xe91f;" glyph-name="trophy2" d="M298.286 455.429q-42.286 92.571-42.286 212h-146.286v-54.857q0-44.571 54-92.571t134.571-64.571zM914.286 612.571v54.857h-146.286q0-119.429-42.286-212 80.571 16.571 134.571 64.571t54 92.571zM987.429 685.714v-73.143q0-40.571-23.714-81.714t-64-74.286-98.857-55.714-123.143-25.429q-24-30.857-54.286-54.286-21.714-19.429-30-41.429t-8.286-51.143q0-30.857 17.429-52t55.714-21.143q42.857 0 76.286-26t33.429-65.429v-36.571q0-8-5.143-13.143t-13.143-5.143h-475.429q-8 0-13.143 5.143t-5.143 13.143v36.571q0 39.429 33.429 65.429t76.286 26q38.286 0 55.714 21.143t17.429 52q0 29.143-8.286 51.143t-30 41.429q-30.286 23.429-54.286 54.286-64.571 2.857-123.143 25.429t-98.857 55.714-64 74.286-23.714 81.714v73.143q0 22.857 16 38.857t38.857 16h164.571v54.857q0 37.714 26.857 64.571t64.571 26.857h329.143q37.714 0 64.571-26.857t26.857-64.571v-54.857h164.571q22.857 0 38.857-16t16-38.857z" />
<glyph unicode="&#xe920;" glyph-name="user2" d="M914.286 157.143q0-68.571-41.714-108.286t-110.857-39.714h-499.429q-69.143 0-110.857 39.714t-41.714 108.286q0 30.286 2 59.143t8 62.286 15.143 62 24.571 55.714 35.429 46.286 48.857 30.571 63.714 11.429q5.143 0 24-12.286t42.571-27.429 61.714-27.429 76.286-12.286 76.286 12.286 61.714 27.429 42.571 27.429 24 12.286q34.857 0 63.714-11.429t48.857-30.571 35.429-46.286 24.571-55.714 15.143-62 8-62.286 2-59.143zM731.429 667.429q0-90.857-64.286-155.143t-155.143-64.286-155.143 64.286-64.286 155.143 64.286 155.143 155.143 64.286 155.143-64.286 64.286-155.143z" />
<glyph unicode="&#xe921;" glyph-name="video-camera" d="M1024 758.857v-621.714q0-24-22.286-33.714-7.429-2.857-14.286-2.857-15.429 0-25.714 10.857l-230.286 230.286v-94.857q0-68-48.286-116.286t-116.286-48.286h-402.286q-68 0-116.286 48.286t-48.286 116.286v402.286q0 68 48.286 116.286t116.286 48.286h402.286q68 0 116.286-48.286t48.286-116.286v-94.286l230.286 229.714q10.286 10.857 25.714 10.857 6.857 0 14.286-2.857 22.286-9.714 22.286-33.714z" />
<glyph unicode="&#xe922;" glyph-name="user_logout" horiz-adv-x="940" d="M223.418 443.345c4.655 0 4.655-4.655 9.309-4.655 13.964-9.309 32.582-18.618 51.2-32.582 23.273-13.964 51.2-27.927 83.782-37.236s69.818-18.618 102.4-18.618c32.582 0 69.818 4.655 102.4 18.618 32.582 9.309 60.509 23.273 83.782 37.236 18.618 13.964 37.236 23.273 51.2 32.582 4.655 4.655 9.309 4.655 9.309 4.655 18.618 0 32.582-4.655 51.2-9.309s32.582-13.964 41.891-27.927c13.964-13.964 23.273-27.927 32.582-41.891 9.309-18.618 18.618-37.236 23.273-55.855s13.964-41.891 13.964-65.164c4.655-23.273 9.309-46.545 9.309-69.818s0-41.891 0-65.164-9.309-69.818-32.582-93.091c-23.273-23.273-55.855-32.582-97.745-32.582h-581.818c-41.891 0-74.473 9.309-97.745 32.582s-32.582 51.2-32.582 93.091c0 23.273 0 46.545 0 65.164s4.655 41.891 9.309 69.818c4.655 23.273 9.309 46.545 13.964 65.164s13.964 37.236 23.273 55.855c9.309 18.618 18.618 32.582 32.582 41.891 9.309 9.309 23.273 18.618 41.891 27.927 18.618 4.655 37.236 9.309 55.855 9.309zM707.491 489.891c-4.655 0-13.964-4.655-27.927-13.964s-32.582-18.618-51.2-32.582c-18.618-13.964-41.891-23.273-69.818-32.582s-60.509-13.964-88.436-13.964c-27.927 0-60.509 4.655-88.436 13.964s-55.855 18.618-69.818 32.582-37.236 23.273-51.2 32.582c-18.618 9.309-27.927 13.964-27.927 13.964-27.927 0-51.2-4.655-74.473-13.964s-41.891-18.618-55.855-37.236c-13.964-13.964-27.927-32.582-41.891-55.855s-23.273-41.891-27.927-65.164c-9.309-23.273-13.964-46.545-18.618-74.473s-9.309-51.2-9.309-74.473c0-23.273-4.655-46.545-4.655-69.818 0-51.2 13.964-97.745 46.545-125.673s74.473-46.545 130.327-46.545h581.818c55.855 0 97.745 13.964 130.327 46.545s46.545 74.473 46.545 125.673c0 23.273 0 46.545-4.655 69.818 0 23.273-4.655 46.545-9.309 74.473s-9.309 51.2-18.618 74.473c-9.309 23.273-18.618 41.891-27.927 65.164s-27.927 37.236-41.891 55.855c-13.964 13.964-32.582 27.927-55.855 37.236-18.618 9.309-41.891 13.964-69.818 13.964v0zM470.109 913.455c60.509 0 107.055-18.618 148.945-60.509s60.509-88.436 60.509-148.945-18.618-107.055-60.509-148.945-93.091-60.509-148.945-60.509-107.055 18.618-148.945 60.509-60.509 88.436-60.509 148.945 18.618 107.055 60.509 148.945 88.436 60.509 148.945 60.509zM470.109 960c-69.818 0-130.327-23.273-181.527-74.473s-74.473-111.709-74.473-181.527 23.273-130.327 74.473-181.527 111.709-74.473 181.527-74.473 130.327 23.273 181.527 74.473 74.473 111.709 74.473 181.527-27.927 130.327-74.473 181.527-111.709 74.473-181.527 74.473v0z" />
<glyph unicode="&#xe923;" glyph-name="chevron-circle-down" d="M537.714 217.714l259.429 259.429q10.857 10.857 10.857 25.714t-10.857 25.714l-58.286 58.286q-10.857 10.857-25.714 10.857t-25.714-10.857l-175.429-175.429-175.429 175.429q-10.857 10.857-25.714 10.857t-25.714-10.857l-58.286-58.286q-10.857-10.857-10.857-25.714t10.857-25.714l259.429-259.429q10.857-10.857 25.714-10.857t25.714 10.857zM950.857 448q0-119.429-58.857-220.286t-159.714-159.714-220.286-58.857-220.286 58.857-159.714 159.714-58.857 220.286 58.857 220.286 159.714 159.714 220.286 58.857 220.286-58.857 159.714-159.714 58.857-220.286z" />
<glyph unicode="&#xe924;" glyph-name="chevron-circle-up" d="M738.857 309.143l58.286 58.286q10.857 10.857 10.857 25.714t-10.857 25.714l-259.429 259.429q-10.857 10.857-25.714 10.857t-25.714-10.857l-259.429-259.429q-10.857-10.857-10.857-25.714t10.857-25.714l58.286-58.286q10.857-10.857 25.714-10.857t25.714 10.857l175.429 175.429 175.429-175.429q10.857-10.857 25.714-10.857t25.714 10.857zM950.857 448q0-119.429-58.857-220.286t-159.714-159.714-220.286-58.857-220.286 58.857-159.714 159.714-58.857 220.286 58.857 220.286 159.714 159.714 220.286 58.857 220.286-58.857 159.714-159.714 58.857-220.286z" />
<glyph unicode="&#xe925;" glyph-name="plus" horiz-adv-x="864" d="M694.848 411.424v73.152q0 14.848-10.848 25.728t-25.728 10.848h-146.272v146.272q0 14.848-10.848 25.728t-25.728 10.848h-73.152q-14.848 0-25.728-10.848t-10.848-25.728v-146.272h-146.272q-14.848 0-25.728-10.848t-10.848-25.728v-73.152q0-14.848 10.848-25.728t25.728-10.848h146.272v-146.272q0-14.848 10.848-25.728t25.728-10.848h73.152q14.848 0 25.728 10.848t10.848 25.728v146.272h146.272q14.848 0 25.728 10.848t10.848 25.728zM877.728 448q0-119.424-58.848-220.288t-159.712-159.712-220.288-58.848-220.288 58.848-159.712 159.712-58.848 220.288 58.848 220.288 159.712 159.712 220.288 58.848 220.288-58.848 159.712-159.712 58.848-220.288z" />
<glyph unicode="&#xe926;" glyph-name="repeat" horiz-adv-x="864" d="M877.728 813.728v-256q0-14.848-10.848-25.728t-25.728-10.848h-256q-24 0-33.728 22.848-9.728 22.272 8 39.424l78.848 78.848q-84.576 78.272-199.424 78.272-59.424 0-113.44-23.136t-93.44-62.56-62.56-93.44-23.136-113.44 23.136-113.44 62.56-93.44 93.44-62.56 113.44-23.136q68 0 128.576 29.728t102.272 84q4 5.728 13.152 6.848 8 0 14.272-5.152l78.272-78.848q5.152-4.576 5.44-11.712t-4.288-12.864q-62.272-75.424-150.848-116.864t-186.848-41.44q-89.152 0-170.272 34.848t-140 93.728-93.728 140-34.848 170.272 34.848 170.272 93.728 140 140 93.728 170.272 34.848q84 0 162.56-31.712t139.712-89.44l74.272 73.728q16.576 17.728 40 8 22.272-9.728 22.272-33.728z" />
<glyph unicode="&#xe927;" glyph-name="angle-left" horiz-adv-x="384" d="M358.272 649.152q0-7.424-5.728-13.152l-224.576-224.576 224.576-224.576q5.728-5.728 5.728-13.152t-5.728-13.152l-28.576-28.576q-5.728-5.728-13.152-5.728t-13.152 5.728l-266.272 266.272q-5.728 5.728-5.728 13.152t5.728 13.152l266.272 266.272q5.728 5.728 13.152 5.728t13.152-5.728l28.576-28.576q5.728-5.728 5.728-13.152z" />
<glyph unicode="&#xe928;" glyph-name="angle-right" horiz-adv-x="352" d="M340 411.424q0-7.424-5.728-13.152l-266.272-266.272q-5.728-5.728-13.152-5.728t-13.152 5.728l-28.576 28.576q-5.728 5.728-5.728 13.152t5.728 13.152l224.576 224.576-224.576 224.576q-5.728 5.728-5.728 13.152t5.728 13.152l28.576 28.576q5.728 5.728 13.152 5.728t13.152-5.728l266.272-266.272q5.728-5.728 5.728-13.152z" />
<glyph unicode="&#xe929;" glyph-name="comment" d="M1024 448q0-99.424-68.576-183.712t-186.272-133.152-257.152-48.864q-40 0-82.848 4.576-113.152-100-262.848-138.272-28-8-65.152-12.576-9.728-1.152-17.44 5.152t-10.016 16.576v0.576q-1.728 2.272-0.288 6.848t1.152 5.728 2.56 5.44l3.424 5.152t4 4.864 4.576 5.152q4 4.576 17.728 19.712t19.712 21.728 17.728 22.56 18.56 29.152 15.424 33.728 14.848 43.424q-89.728 50.848-141.44 125.728t-51.712 160.576q0 74.272 40.576 142.016t109.152 116.864 163.424 78.016 198.848 28.864q139.424 0 257.152-48.864t186.272-133.152 68.576-183.712z" />
<glyph unicode="&#xe92a;" glyph-name="diagram" horiz-adv-x="1056" d="M1027.872-64c0 0-228.448 0-228.448 0-17.664 0-32.128 14.464-32.128 32.128 0 0 0 588.256 0 588.256 0 17.664 14.464 32.128 32.128 32.128 0 0 228.448 0 228.448 0 17.664 0 31.776-14.464 31.776-32.128 0 0 0-588.256 0-588.256 0-17.664-14.112-32.128-31.776-32.128zM644.416-64c0 0-228.448 0-228.448 0-17.664 0-32.128 14.464-32.128 32.128 0 0 0 959.744 0 959.744 0 17.664 14.464 32.128 32.128 32.128 0 0 228.448 0 228.448 0 17.664 0 31.776-14.464 31.776-32.128 0 0 0-959.744 0-959.744 0-17.664-14.112-32.128-31.776-32.128zM260.928-64c0 0-228.448 0-228.448 0-17.664 0-32.128 14.464-32.128 32.128 0 0 0 358.752 0 358.752 0 17.664 14.464 32.128 32.128 32.128 0 0 228.448 0 228.448 0 17.664 0 31.776-14.464 31.776-32.128 0 0 0-358.752 0-358.752 0-17.664-14.112-32.128-31.776-32.128z" />
<glyph unicode="&#xe92b;" glyph-name="ellipsis-h" horiz-adv-x="800" d="M219.424 539.424v-109.728q0-22.848-16-38.848t-38.848-16h-109.728q-22.848 0-38.848 16t-16 38.848v109.728q0 22.848 16 38.848t38.848 16h109.728q22.848 0 38.848-16t16-38.848zM512 539.424v-109.728q0-22.848-16-38.848t-38.848-16h-109.728q-22.848 0-38.848 16t-16 38.848v109.728q0 22.848 16 38.848t38.848 16h109.728q22.848 0 38.848-16t16-38.848zM804.576 539.424v-109.728q0-22.848-16-38.848t-38.848-16h-109.728q-22.848 0-38.848 16t-16 38.848v109.728q0 22.848 16 38.848t38.848 16h109.728q22.848 0 38.848-16t16-38.848z" />
<glyph unicode="&#xe92c;" glyph-name="files-o2" d="M969.152 740.576q22.848 0 38.848-16t16-38.848v-694.848q0-22.848-16-38.848t-38.848-16h-548.576q-22.848 0-38.848 16t-16 38.848v164.576h-310.848q-22.848 0-38.848 16t-16 38.848v384q0 22.848 11.424 50.272t27.424 43.424l233.152 233.152q16 16 43.424 27.424t50.272 11.424h237.728q22.848 0 38.848-16t16-38.848v-187.424q38.848 22.848 73.152 22.848h237.728zM658.272 618.848l-170.848-170.848h170.848v170.848zM292.576 838.272l-170.848-170.848h170.848v170.848zM404.576 468.576l180.576 180.576v237.728h-219.424v-237.728q0-22.848-16-38.848t-38.848-16h-237.728v-365.728h292.576v146.272q0 22.848 11.424 50.272t27.424 43.424zM950.848 9.152v658.272h-219.424v-237.728q0-22.848-16-38.848t-38.848-16h-237.728v-365.728h512z" />
<glyph unicode="&#xe92d;" glyph-name="google-plus" horiz-adv-x="1312" d="M821.152 438.272q0-118.848-49.728-211.712t-141.728-145.152-210.848-52.288q-85.152 0-162.848 33.152t-133.728 89.152-89.152 133.728-33.152 162.848 33.152 162.848 89.152 133.728 133.728 89.152 162.848 33.152q163.424 0 280.576-109.728l-113.728-109.152q-66.848 64.576-166.848 64.576-70.272 0-130.016-35.424t-94.56-96.288-34.848-132.864 34.848-132.864 94.56-96.288 130.016-35.424q47.424 0 87.136 13.152t65.44 32.864 44.864 44.864 28 47.424 12.288 42.272h-237.728v144h395.424q6.848-36 6.848-69.728zM1316.576 508v-120h-119.424v-119.424h-120v119.424h-119.424v120h119.424v119.424h120v-119.424h119.424z" />
<glyph unicode="&#xe92e;" glyph-name="heart-o" d="M950.848 619.424q0 46.272-12.288 81.728t-31.424 56.288-46.56 34.016-53.728 17.728-56 4.576-64-14.56-63.136-36.576-49.44-41.152-34.272-35.136q-10.272-12.576-28-12.576t-28 12.576q-13.728 16-34.272 35.136t-49.44 41.152-63.136 36.576-64 14.56-56-4.576-53.728-17.728-46.56-34.016-31.424-56.288-12.288-81.728q0-96 106.848-202.848l332-320 331.424 319.424q107.424 107.424 107.424 203.424zM1024 619.424q0-126.272-130.848-257.152l-356-342.848q-10.272-10.272-25.152-10.272t-25.152 10.272l-356.576 344q-5.728 4.576-15.712 14.848t-31.712 37.44-38.848 55.712-30.56 69.152-13.44 78.848q0 125.728 72.576 196.576t200.576 70.848q35.424 0 72.288-12.288t68.576-33.152 54.56-39.136 43.424-38.848q20.576 20.576 43.424 38.848t54.56 39.136 68.576 33.152 72.288 12.288q128 0 200.576-70.848t72.576-196.576z" />
<glyph unicode="&#xe92f;" glyph-name="heart2" d="M512 9.152q-14.848 0-25.152 10.272l-356.576 344q-5.728 4.576-15.712 14.848t-31.712 37.44-38.848 55.712-30.56 69.152-13.44 78.848q0 125.728 72.576 196.576t200.576 70.848q35.424 0 72.288-12.288t68.576-33.152 54.56-39.136 43.424-38.848q20.576 20.576 43.424 38.848t54.56 39.136 68.576 33.152 72.288 12.288q128 0 200.576-70.848t72.576-196.576q0-126.272-130.848-257.152l-356-342.848q-10.272-10.272-25.152-10.272z" />
<glyph unicode="&#xe930;" glyph-name="history" horiz-adv-x="864" d="M877.728 448q0-89.152-34.848-170.272t-93.728-140-140-93.728-170.272-34.848q-98.272 0-186.848 41.44t-150.848 116.864q-4 5.728-3.712 12.864t4.864 11.712l78.272 78.848q5.728 5.152 14.272 5.152 9.152-1.152 13.152-6.848 41.728-54.272 102.272-84t128.576-29.728q59.424 0 113.44 23.136t93.44 62.56 62.56 93.44 23.136 113.44-23.136 113.44-62.56 93.44-93.44 62.56-113.44 23.136q-56 0-107.424-20.288t-91.424-58.016l78.272-78.848q17.728-17.152 8-39.424-9.728-22.848-33.728-22.848h-256q-14.848 0-25.728 10.848t-10.848 25.728v256q0 24 22.848 33.728 22.272 9.728 39.424-8l74.272-73.728q61.152 57.728 139.712 89.44t162.56 31.712q89.152 0 170.272-34.848t140-93.728 93.728-140 34.848-170.272zM512 612.576v-256q0-8-5.152-13.152t-13.152-5.152h-182.848q-8 0-13.152 5.152t-5.152 13.152v36.576q0 8 5.152 13.152t13.152 5.152h128v201.152q0 8 5.152 13.152t13.152 5.152h36.576q8 0 13.152-5.152t5.152-13.152z" />
<glyph unicode="&#xe931;" glyph-name="info" horiz-adv-x="352" d="M365.728 192v-73.152q0-14.848-10.848-25.728t-25.728-10.848h-292.576q-14.848 0-25.728 10.848t-10.848 25.728v73.152q0 14.848 10.848 25.728t25.728 10.848h36.576v219.424h-36.576q-14.848 0-25.728 10.848t-10.848 25.728v73.152q0 14.848 10.848 25.728t25.728 10.848h219.424q14.848 0 25.728-10.848t10.848-25.728v-329.152h36.576q14.848 0 25.728-10.848t10.848-25.728zM292.576 850.272v-109.728q0-14.848-10.848-25.728t-25.728-10.848h-146.272q-14.848 0-25.728 10.848t-10.848 25.728v109.728q0 14.848 10.848 25.728t25.728 10.848h146.272q14.848 0 25.728-10.848t10.848-25.728z" />
<glyph unicode="&#xe932;" glyph-name="reddit-alien" d="M1024 476.576q0-33.152-16.864-60.288t-45.44-41.44q6.848-26.272 6.848-54.848 0-88.576-60.864-164t-166.016-119.136-228.576-43.712-228.288 43.712-165.728 119.136-60.864 164q0 26.848 6.272 53.728-29.152 14.272-46.848 42.016t-17.728 60.864q0 46.848 33.152 80.288t80.576 33.44q48.576 0 82.848-36 124.576 86.848 294.272 92.576l66.272 297.728q1.728 7.424 8.576 12t14.848 2.848l210.848-46.272q10.272 21.152 30.848 34.016t45.152 12.864q35.424 0 60.576-24.864t25.152-60.288-25.152-60.576-60.576-25.152-60.288 24.864-24.864 60.288l-190.848 42.272-59.424-269.728q171.424-5.152 296.576-91.424 33.152 34.848 81.728 34.848 47.424 0 80.576-33.44t33.152-80.288zM238.848 362.848q0-35.424 24.864-60.576t60.288-25.152 60.576 25.152 25.152 60.576-25.152 60.288-60.576 24.864q-34.848 0-60-25.152t-25.152-60zM701.728 160q6.272 6.272 6.272 14.848t-6.272 14.848q-5.728 5.728-14.272 5.728t-14.848-5.728q-23.424-24-69.152-35.424t-91.424-11.424-91.424 11.424-69.152 35.424q-6.272 5.728-14.848 5.728t-14.272-5.728q-6.272-5.728-6.272-14.56t6.272-15.136q24.576-24.576 67.712-38.848t70.016-16.864 52-2.56 52 2.56 70.016 16.864 67.712 38.848zM700 277.152q35.424 0 60.288 25.152t24.864 60.576q0 34.848-25.152 60t-60 25.152q-35.424 0-60.576-24.864t-25.152-60.288 25.152-60.576 60.576-25.152z" />
<glyph unicode="&#xe933;" glyph-name="share-alt" horiz-adv-x="864" d="M694.848 374.848q76 0 129.44-53.44t53.44-129.44-53.44-129.44-129.44-53.44-129.44 53.44-53.44 129.44q0 6.848 1.152 19.424l-205.728 102.848q-52.576-49.152-124.576-49.152-76 0-129.44 53.44t-53.44 129.44 53.44 129.44 129.44 53.44q72 0 124.576-49.152l205.728 102.848q-1.152 12.576-1.152 19.424 0 76 53.44 129.44t129.44 53.44 129.44-53.44 53.44-129.44-53.44-129.44-129.44-53.44q-72 0-124.576 49.152l-205.728-102.848q1.152-12.576 1.152-19.424t-1.152-19.424l205.728-102.848q52.576 49.152 124.576 49.152z" />
<glyph unicode="&#xe934;" glyph-name="star2" horiz-adv-x="960" d="M950.848 590.272q0-12.576-14.848-27.424l-207.424-202.272 49.152-285.728q0.576-4 0.576-11.424 0-12-6.016-20.288t-17.44-8.288q-10.848 0-22.848 6.848l-256.576 134.848-256.576-134.848q-12.576-6.848-22.848-6.848-12 0-18.016 8.288t-6.016 20.288q0 3.424 1.152 11.424l49.152 285.728-208 202.272q-14.272 15.424-14.272 27.424 0 21.152 32 26.272l286.848 41.728 128.576 260q10.848 23.424 28 23.424t28-23.424l128.576-260 286.848-41.728q32-5.152 32-26.272z" />
<glyph unicode="&#xe935;" glyph-name="stories-icon" horiz-adv-x="939" d="M760.953 960h-582.742c-98.389 0-178.211-79.822-178.211-178.211v-667.579c0-98.389 79.822-178.211 178.211-178.211h582.742c98.389 0 178.211 79.822 178.211 178.211v667.579c0 98.389-79.822 178.211-178.211 178.211zM517.827 106.35h-345.851v85.379h345.851v-85.379zM773.827 274.533h-601.851v85.379h601.851v-85.379zM773.827 446.103h-601.851v85.379h601.851v-85.379zM773.827 617.673h-601.851v85.379h601.851v-85.379z" />
<glyph unicode="&#xe936;" glyph-name="tags2" horiz-adv-x="1088" d="M256 704q0 30.272-21.44 51.712t-51.712 21.44-51.712-21.44-21.44-51.712 21.44-51.712 51.712-21.44 51.712 21.44 21.44 51.712zM865.728 374.848q0-30.272-21.152-51.424l-280.576-281.152q-22.272-21.152-52-21.152-30.272 0-51.424 21.152l-408.576 409.152q-21.728 21.152-36.864 57.728t-15.136 66.848v237.728q0 29.728 21.728 51.424t51.424 21.728h237.728q30.272 0 66.848-15.136t58.272-36.864l408.576-408q21.152-22.272 21.152-52zM1085.152 374.848q0-30.272-21.152-51.424l-280.576-281.152q-22.272-21.152-52-21.152-20.576 0-33.728 8t-30.272 25.728l268.576 268.576q21.152 21.152 21.152 51.424 0 29.728-21.152 52l-408.576 408q-21.728 21.728-58.272 36.864t-66.848 15.136h128q30.272 0 66.848-15.136t58.272-36.864l408.576-408q21.152-22.272 21.152-52z" />
<glyph unicode="&#xe937;" glyph-name="twitter" horiz-adv-x="960" d="M925.728 726.848q-38.272-56-92.576-95.424 0.576-8 0.576-24 0-74.272-21.728-148.288t-66.016-141.984-105.44-120.288-147.424-83.424-184.576-31.136q-154.848 0-283.424 82.848 20-2.272 44.576-2.272 128.576 0 229.152 78.848-60 1.152-107.424 36.864t-65.152 91.136q18.848-2.848 34.848-2.848 24.576 0 48.576 6.272-64 13.152-106.016 63.712t-42.016 117.44v2.272q38.848-21.728 83.424-23.424-37.728 25.152-60 65.728t-22.272 88q0 50.272 25.152 93.152 69.152-85.152 168.288-136.288t212.288-56.864q-4.576 21.728-4.576 42.272 0 76.576 54.016 130.56t130.56 54.016q80 0 134.848-58.272 62.272 12 117.152 44.576-21.152-65.728-81.152-101.728 53.152 5.728 106.272 28.576z" />
<glyph unicode="&#xe938;" glyph-name="bookmark-o" horiz-adv-x="736" d="M658.272 813.728h-585.152v-709.728l292.576 280.576 50.848-48.576 241.728-232v709.728zM665.152 886.848q13.152 0 25.152-5.152 18.848-7.424 30.016-23.424t11.136-35.424v-736.576q0-19.424-11.136-35.424t-30.016-23.424q-10.848-4.576-25.152-4.576-27.424 0-47.424 18.272l-252 242.272-252-242.272q-20.576-18.848-47.424-18.848-13.152 0-25.152 5.152-18.848 7.424-30.016 23.424t-11.136 35.424v736.576q0 19.424 11.136 35.424t30.016 23.424q12 5.152 25.152 5.152h598.848z" />
<glyph unicode="&#xe939;" glyph-name="exclamation-circle" horiz-adv-x="864" d="M438.848 886.848q119.424 0 220.288-58.848t159.712-159.712 58.848-220.288-58.848-220.288-159.712-159.712-220.288-58.848-220.288 58.848-159.712 159.712-58.848 220.288 58.848 220.288 159.712 159.712 220.288 58.848zM512 174.272v108.576q0 8-5.152 13.44t-12.576 5.44h-109.728q-7.424 0-13.152-5.728t-5.728-13.152v-108.576q0-7.424 5.728-13.152t13.152-5.728h109.728q7.424 0 12.576 5.44t5.152 13.44zM510.848 370.848l10.272 354.848q0 6.848-5.728 10.272-5.728 4.576-13.728 4.576h-125.728q-8 0-13.728-4.576-5.728-3.424-5.728-10.272l9.728-354.848q0-5.728 5.728-10.016t13.728-4.288h105.728q8 0 13.44 4.288t6.016 10.016z" />
<glyph unicode="&#xe93a;" glyph-name="user3" d="M914.272 157.152q0-68.576-41.728-108.288t-110.848-39.712h-499.424q-69.152 0-110.848 39.712t-41.728 108.288q0 30.272 2.016 59.136t8 62.272 15.136 62.016 24.576 55.712 35.424 46.272 48.864 30.56 63.712 11.424q5.152 0 24-12.288t42.56-27.424 61.728-27.424 76.288-12.288 76.288 12.288 61.728 27.424 42.56 27.424 24 12.288q34.848 0 63.712-11.424t48.864-30.56 35.424-46.272 24.576-55.712 15.136-62.016 8-62.272 2.016-59.136zM731.424 667.424q0-90.848-64.288-155.136t-155.136-64.288-155.136 64.288-64.288 155.136 64.288 155.136 155.136 64.288 155.136-64.288 64.288-155.136z" />
<glyph unicode="&#xe93b;" glyph-name="cog2" d="M658.286 448q0 60.571-42.857 103.429t-103.429 42.857-103.429-42.857-42.857-103.429 42.857-103.429 103.429-42.857 103.429 42.857 42.857 103.429zM950.857 510.286v-126.857q0-6.857-4.571-13.143t-11.429-7.429l-105.714-16q-10.857-30.857-22.286-52 20-28.571 61.143-78.857 5.714-6.857 5.714-14.286t-5.143-13.143q-15.429-21.143-56.571-61.714t-53.714-40.571q-6.857 0-14.857 5.143l-78.857 61.714q-25.143-13.143-52-21.714-9.143-77.714-16.571-106.286-4-16-20.571-16h-126.857q-8 0-14 4.857t-6.571 12.286l-16 105.143q-28 9.143-51.429 21.143l-80.571-61.143q-5.714-5.143-14.286-5.143-8 0-14.286 6.286-72 65.143-94.286 96-4 5.714-4 13.143 0 6.857 4.571 13.143 8.571 12 29.143 38t30.857 40.286q-15.429 28.571-23.429 56.571l-104.571 15.429q-7.429 1.143-12 7.143t-4.571 13.429v126.857q0 6.857 4.571 13.143t10.857 7.429l106.286 16q8 26.286 22.286 52.571-22.857 32.571-61.143 78.857-5.714 6.857-5.714 13.714 0 5.714 5.143 13.143 14.857 20.571 56.286 61.429t54 40.857q7.429 0 14.857-5.714l78.857-61.143q25.143 13.143 52 21.714 9.143 77.714 16.571 106.286 4 16 20.571 16h126.857q8 0 14-4.857t6.571-12.286l16-105.143q28-9.143 51.429-21.143l81.143 61.143q5.143 5.143 13.714 5.143 7.429 0 14.286-5.714 73.714-68 94.286-97.143 4-4.571 4-12.571 0-6.857-4.571-13.143-8.571-12-29.143-38t-30.857-40.286q14.857-28.571 23.429-56l104.571-16q7.429-1.143 12-7.143t4.571-13.429z" />
<glyph unicode="&#xe93c;" glyph-name="user_logout2" horiz-adv-x="940" d="M223.418 443.345c4.655 0 4.655-4.655 9.309-4.655 13.964-9.309 32.582-18.618 51.2-32.582 23.273-13.964 51.2-27.927 83.782-37.236s69.818-18.618 102.4-18.618c32.582 0 69.818 4.655 102.4 18.618 32.582 9.309 60.509 23.273 83.782 37.236 18.618 13.964 37.236 23.273 51.2 32.582 4.655 4.655 9.309 4.655 9.309 4.655 18.618 0 32.582-4.655 51.2-9.309s32.582-13.964 41.891-27.927c13.964-13.964 23.273-27.927 32.582-41.891 9.309-18.618 18.618-37.236 23.273-55.855s13.964-41.891 13.964-65.164c4.655-23.273 9.309-46.545 9.309-69.818s0-41.891 0-65.164-9.309-69.818-32.582-93.091c-23.273-23.273-55.855-32.582-97.745-32.582h-581.818c-41.891 0-74.473 9.309-97.745 32.582s-32.582 51.2-32.582 93.091c0 23.273 0 46.545 0 65.164s4.655 41.891 9.309 69.818c4.655 23.273 9.309 46.545 13.964 65.164s13.964 37.236 23.273 55.855c9.309 18.618 18.618 32.582 32.582 41.891 9.309 9.309 23.273 18.618 41.891 27.927 18.618 4.655 37.236 9.309 55.855 9.309zM707.491 489.891c-4.655 0-13.964-4.655-27.927-13.964s-32.582-18.618-51.2-32.582c-18.618-13.964-41.891-23.273-69.818-32.582s-60.509-13.964-88.436-13.964c-27.927 0-60.509 4.655-88.436 13.964s-55.855 18.618-69.818 32.582-37.236 23.273-51.2 32.582c-18.618 9.309-27.927 13.964-27.927 13.964-27.927 0-51.2-4.655-74.473-13.964s-41.891-18.618-55.855-37.236c-13.964-13.964-27.927-32.582-41.891-55.855s-23.273-41.891-27.927-65.164c-9.309-23.273-13.964-46.545-18.618-74.473s-9.309-51.2-9.309-74.473c0-23.273-4.655-46.545-4.655-69.818 0-51.2 13.964-97.745 46.545-125.673s74.473-46.545 130.327-46.545h581.818c55.855 0 97.745 13.964 130.327 46.545s46.545 74.473 46.545 125.673c0 23.273 0 46.545-4.655 69.818 0 23.273-4.655 46.545-9.309 74.473s-9.309 51.2-18.618 74.473c-9.309 23.273-18.618 41.891-27.927 65.164s-27.927 37.236-41.891 55.855c-13.964 13.964-32.582 27.927-55.855 37.236-18.618 9.309-41.891 13.964-69.818 13.964v0zM470.109 913.455c60.509 0 107.055-18.618 148.945-60.509s60.509-88.436 60.509-148.945-18.618-107.055-60.509-148.945-93.091-60.509-148.945-60.509-107.055 18.618-148.945 60.509-60.509 88.436-60.509 148.945 18.618 107.055 60.509 148.945 88.436 60.509 148.945 60.509zM470.109 960c-69.818 0-130.327-23.273-181.527-74.473s-74.473-111.709-74.473-181.527 23.273-130.327 74.473-181.527 111.709-74.473 181.527-74.473 130.327 23.273 181.527 74.473 74.473 111.709 74.473 181.527-27.927 130.327-74.473 181.527-111.709 74.473-181.527 74.473v0z" />
<glyph unicode="&#xe93d;" glyph-name="home2" d="M841.143 393.143v-274.286q0-14.857-10.857-25.714t-25.714-10.857h-219.429v219.429h-146.286v-219.429h-219.429q-14.857 0-25.714 10.857t-10.857 25.714v274.286q0 0.571 0.286 1.714t0.286 1.714l328.571 270.857 328.571-270.857q0.571-1.143 0.571-3.429zM968.571 432.571l-35.429-42.286q-4.571-5.143-12-6.286h-1.714q-7.429 0-12 4l-395.429 329.714-395.429-329.714q-6.857-4.571-13.714-4-7.429 1.143-12 6.286l-35.429 42.286q-4.571 5.714-4 13.429t6.286 12.286l410.857 342.286q18.286 14.857 43.429 14.857t43.429-14.857l139.429-116.571v111.429q0 8 5.143 13.143t13.143 5.143h109.714q8 0 13.143-5.143t5.143-13.143v-233.143l125.143-104q5.714-4.571 6.286-12.286t-4-13.429z" />
<glyph unicode="&#xe93e;" glyph-name="story2" d="M912 688q8-8 16-20.571h-269.714v269.714q12.571-8 20.571-16zM640 594.286h310.857v-603.429q0-22.857-16-38.857t-38.857-16h-768q-22.857 0-38.857 16t-16 38.857v914.286q0 22.857 16 38.857t38.857 16h457.143v-310.857q0-22.857 16-38.857t38.857-16zM731.429 173.714v36.571q0 8-5.143 13.143t-13.143 5.143h-402.286q-8 0-13.143-5.143t-5.143-13.143v-36.571q0-8 5.143-13.143t13.143-5.143h402.286q8 0 13.143 5.143t5.143 13.143zM731.429 320v36.571q0 8-5.143 13.143t-13.143 5.143h-402.286q-8 0-13.143-5.143t-5.143-13.143v-36.571q0-8 5.143-13.143t13.143-5.143h402.286q8 0 13.143 5.143t5.143 13.143zM731.429 466.286v36.571q0 8-5.143 13.143t-13.143 5.143h-402.286q-8 0-13.143-5.143t-5.143-13.143v-36.571q0-8 5.143-13.143t13.143-5.143h402.286q8 0 13.143 5.143t5.143 13.143z" />
<glyph unicode="&#xe93f;" glyph-name="poem2" d="M914.286 594.286q0 45.714-32 77.714t-77.714 32h-36.571v-219.429h36.571q45.714 0 77.714 32t32 77.714zM-36.571 155.429h1024q0-60.571-42.857-103.429t-103.429-42.857h-731.429q-60.571 0-103.429 42.857t-42.857 103.429zM1024 594.286q0-90.857-64.286-155.143t-155.143-64.286h-36.571v-18.286q0-52.571-37.714-90.286t-90.286-37.714h-402.286q-52.571 0-90.286 37.714t-37.714 90.286v420.571q0 14.857 10.857 25.714t25.714 10.857h658.286q90.857 0 155.143-64.286t64.286-155.143z" />
<glyph unicode="&#xe940;" glyph-name="artwork2" d="M329.143 630.857q0-45.714-32-77.714t-77.714-32-77.714 32-32 77.714 32 77.714 77.714 32 77.714-32 32-77.714zM914.286 411.429v-256h-804.571v109.714l182.857 182.857 91.429-91.429 292.571 292.571zM969.143 813.714h-914.286q-7.429 0-12.857-5.429t-5.429-12.857v-694.857q0-7.429 5.429-12.857t12.857-5.429h914.286q7.429 0 12.857 5.429t5.429 12.857v694.857q0 7.429-5.429 12.857t-12.857 5.429zM1060.571 795.429v-694.857q0-37.714-26.857-64.571t-64.571-26.857h-914.286q-37.714 0-64.571 26.857t-26.857 64.571v694.857q0 37.714 26.857 64.571t64.571 26.857h914.286q37.714 0 64.571-26.857t26.857-64.571z" />
<glyph unicode="&#xe941;" glyph-name="book-head2" d="M1004.308 704v-608.492h-419.446c0-45.292-110.277-47.262-110.277 0h-454.892v602.585c0 51.2 68.923 68.923 106.338 90.585v45.292h33.477c147.692 1.969 265.846-7.877 354.462-70.892 9.846-7.877 21.662-7.877 33.477 0 86.646 63.015 206.769 72.862 352.492 70.892v-45.292c31.508-19.692 104.369-43.323 104.369-84.677zM419.446 166.4c-61.046 33.477-173.292 35.446-259.938 35.446v0h-33.477v541.538c-13.785-5.908-37.415-17.723-35.446-41.354v-535.631h328.862zM159.508 237.292c256 9.846 299.323-35.446 354.462-70.892v559.262c-92.554 55.138-212.677 74.831-354.462 72.862v-561.231zM547.446 166.4h1.969c49.231 33.477 90.585 74.831 299.323 72.862 5.908 0 11.815 0 17.723 0v559.262c-13.785 0-25.6 0-39.385 0v-139.815l-49.231 57.108-53.169-57.108v128c-66.954-9.846-126.031-29.538-177.231-61.046v-559.262zM890.092 201.846v0h-17.723c-5.908 0-9.846 0-25.6 0-72.862-1.969-155.569-7.877-204.8-35.446h291.446v541.538c0 13.785-21.662 29.538-33.477 35.446v-541.538h-9.846z" />
<glyph unicode="&#xe942;" glyph-name="pencil2" d="M19.692 58.092h984.615v-61.17h-984.615v61.17zM632.123 776.862l135.877-135.877-403.692-403.692h-135.877v135.877zM779.815 893.046l106.338-104.369c7.877-7.877 7.877-21.662 0-31.508l-66.954-64.985c-7.877-7.877-21.662-7.877-29.538 0l-104.369 104.369c-9.846 9.846-9.846 23.631 0 31.508l64.985 64.985c7.877 7.877 21.662 7.877 29.538 0z" />
<glyph unicode="&#xe943;" glyph-name="user-head2" d="M914.286 157.143q0-68.571-41.714-108.286t-110.857-39.714h-499.429q-69.143 0-110.857 39.714t-41.714 108.286q0 30.286 2 59.143t8 62.286 15.143 62 24.571 55.714 35.429 46.286 48.857 30.571 63.714 11.429q5.143 0 24-12.286t42.571-27.429 61.714-27.429 76.286-12.286 76.286 12.286 61.714 27.429 42.571 27.429 24 12.286q34.857 0 63.714-11.429t48.857-30.571 35.429-46.286 24.571-55.714 15.143-62 8-62.286 2-59.143zM731.429 667.429q0-90.857-64.286-155.143t-155.143-64.286-155.143 64.286-64.286 155.143 64.286 155.143 155.143 64.286 155.143-64.286 64.286-155.143z" />
<glyph unicode="&#xe944;" glyph-name="book2" d="M973.143 686.857q22.857-32.571 10.286-73.714l-157.143-517.714q-10.857-36.571-43.714-61.429t-70-24.857h-527.429q-44 0-84.857 30.571t-56.857 75.143q-13.714 38.286-1.143 72.571 0 2.286 1.714 15.429t2.286 21.143q0.571 4.571-1.714 12.286t-1.714 11.143q1.143 6.286 4.571 12t9.429 13.429 9.429 13.429q13.143 21.714 25.714 52.286t17.143 52.286q1.714 5.714 0.286 17.143t-0.286 16q1.714 6.286 9.714 16t9.714 13.143q12 20.571 24 52.571t14.286 51.429q0.571 5.143-1.429 18.286t0.286 16q2.286 7.429 12.571 17.429t12.571 12.857q10.857 14.857 24.286 48.286t15.714 55.143q0.571 4.571-1.714 14.571t-1.143 15.143q1.143 4.571 5.143 10.286t10.286 13.143 9.714 12q4.571 6.857 9.429 17.429t8.571 20 9.143 20.571 11.143 18.286 15.143 13.429 20.571 6.571 27.143-3.143l-0.571-1.714q21.714 5.143 29.143 5.143h434.857q42.286 0 65.143-32t10.286-74.286l-156.571-517.714q-20.571-68-40.857-87.714t-73.429-19.714h-496.571q-15.429 0-21.714-8.571-6.286-9.143-0.571-24.571 13.714-40 82.286-40h527.429q16.571 0 32 8.857t20 23.714l171.429 564q4 12.571 2.857 32.571 21.714-8.571 33.714-24.571zM365.143 685.714q-2.286-7.429 1.143-12.857t11.429-5.429h347.429q7.429 0 14.571 5.429t9.429 12.857l12 36.571q2.286 7.429-1.143 12.857t-11.429 5.429h-347.429q-7.429 0-14.571-5.429t-9.429-12.857zM317.714 539.429q-2.286-7.429 1.143-12.857t11.429-5.429h347.429q7.429 0 14.571 5.429t9.429 12.857l12 36.571q2.286 7.429-1.143 12.857t-11.429 5.429h-347.429q-7.429 0-14.571-5.429t-9.429-12.857z" />
<glyph unicode="&#xe945;" glyph-name="bookmark2" d="M811.429 886.857q13.143 0 25.143-5.143 18.857-7.429 30-23.429t11.143-35.429v-736.571q0-19.429-11.143-35.429t-30-23.429q-10.857-4.571-25.143-4.571-27.429 0-47.429 18.286l-252 242.286-252-242.286q-20.571-18.857-47.429-18.857-13.143 0-25.143 5.143-18.857 7.429-30 23.429t-11.143 35.429v736.571q0 19.429 11.143 35.429t30 23.429q12 5.143 25.143 5.143h598.857z" />
<glyph unicode="&#xe946;" glyph-name="envelope-o2" d="M950.857 100.571v438.857q-18.286-20.571-39.429-37.714-153.143-117.714-243.429-193.143-29.143-24.571-47.429-38.286t-49.429-27.714-58.571-14h-1.143q-27.429 0-58.571 14t-49.429 27.714-47.429 38.286q-90.286 75.429-243.429 193.143-21.143 17.143-39.429 37.714v-438.857q0-7.429 5.429-12.857t12.857-5.429h841.143q7.429 0 12.857 5.429t5.429 12.857zM950.857 701.143v14l-0.286 7.429-1.714 7.143-3.143 5.143-5.143 4.286-8 1.429h-841.143q-7.429 0-12.857-5.429t-5.429-12.857q0-96 84-162.286 110.286-86.857 229.143-181.143 3.429-2.857 20-16.857t26.286-21.429 25.429-18 28.857-15.714 24.571-5.143h1.143q11.429 0 24.571 5.143t28.857 15.714 25.429 18 26.286 21.429 20 16.857q118.857 94.286 229.143 181.143 30.857 24.571 57.429 66t26.571 75.143zM1024 722.286v-621.714q0-37.714-26.857-64.571t-64.571-26.857h-841.143q-37.714 0-64.571 26.857t-26.857 64.571v621.714q0 37.714 26.857 64.571t64.571 26.857h841.143q37.714 0 64.571-26.857t26.857-64.571z" />
<glyph unicode="&#xe947;" glyph-name="question-circle3" d="M585.143 173.714v109.714q0 8-5.143 13.143t-13.143 5.143h-109.714q-8 0-13.143-5.143t-5.143-13.143v-109.714q0-8 5.143-13.143t13.143-5.143h109.714q8 0 13.143 5.143t5.143 13.143zM731.429 557.714q0 50.286-31.714 93.143t-79.143 66.286-97.143 23.429q-138.857 0-212-121.714-8.571-13.714 4.571-24l75.429-57.143q4-3.429 10.857-3.429 9.143 0 14.286 6.857 30.286 38.857 49.143 52.571 19.429 13.714 49.143 13.714 27.429 0 48.857-14.857t21.429-33.714q0-21.714-11.429-34.857t-38.857-25.714q-36-16-66-49.429t-30-71.714v-20.571q0-8 5.143-13.143t13.143-5.143h109.714q8 0 13.143 5.143t5.143 13.143q0 10.857 12.286 28.286t31.143 28.286q18.286 10.286 28 16.286t26.286 20 25.429 27.429 16 34.571 7.143 46.286zM950.857 448q0-119.429-58.857-220.286t-159.714-159.714-220.286-58.857-220.286 58.857-159.714 159.714-58.857 220.286 58.857 220.286 159.714 159.714 220.286 58.857 220.286-58.857 159.714-159.714 58.857-220.286z" />
<glyph unicode="&#xe948;" glyph-name="sign-out2" d="M402.286 137.143q0-2.286 0.571-11.429t0.286-15.143-1.714-13.429-5.714-11.143-11.714-3.714h-182.857q-68 0-116.286 48.286t-48.286 116.286v402.286q0 68 48.286 116.286t116.286 48.286h182.857q7.429 0 12.857-5.429t5.429-12.857q0-2.286 0.571-11.429t0.286-15.143-1.714-13.429-5.714-11.143-11.714-3.714h-182.857q-37.714 0-64.571-26.857t-26.857-64.571v-402.286q0-37.714 26.857-64.571t64.571-26.857h178.286l6.571-0.571 6.571-1.714 4.571-3.143 4-5.143 1.143-7.714zM932.571 448q0-14.857-10.857-25.714l-310.857-310.857q-10.857-10.857-25.714-10.857t-25.714 10.857-10.857 25.714v164.571h-256q-14.857 0-25.714 10.857t-10.857 25.714v219.429q0 14.857 10.857 25.714t25.714 10.857h256v164.571q0 14.857 10.857 25.714t25.714 10.857 25.714-10.857l310.857-310.857q10.857-10.857 10.857-25.714z" />
<glyph unicode="&#xe949;" glyph-name="trophy3" d="M298.286 455.429q-42.286 92.571-42.286 212h-146.286v-54.857q0-44.571 54-92.571t134.571-64.571zM914.286 612.571v54.857h-146.286q0-119.429-42.286-212 80.571 16.571 134.571 64.571t54 92.571zM987.429 685.714v-73.143q0-40.571-23.714-81.714t-64-74.286-98.857-55.714-123.143-25.429q-24-30.857-54.286-54.286-21.714-19.429-30-41.429t-8.286-51.143q0-30.857 17.429-52t55.714-21.143q42.857 0 76.286-26t33.429-65.429v-36.571q0-8-5.143-13.143t-13.143-5.143h-475.429q-8 0-13.143 5.143t-5.143 13.143v36.571q0 39.429 33.429 65.429t76.286 26q38.286 0 55.714 21.143t17.429 52q0 29.143-8.286 51.143t-30 41.429q-30.286 23.429-54.286 54.286-64.571 2.857-123.143 25.429t-98.857 55.714-64 74.286-23.714 81.714v73.143q0 22.857 16 38.857t38.857 16h164.571v54.857q0 37.714 26.857 64.571t64.571 26.857h329.143q37.714 0 64.571-26.857t26.857-64.571v-54.857h164.571q22.857 0 38.857-16t16-38.857z" />
<glyph unicode="&#xe94a;" glyph-name="user-plus2" d="M329.143 448q-90.857 0-155.143 64.286t-64.286 155.143 64.286 155.143 155.143 64.286 155.143-64.286 64.286-155.143-64.286-155.143-155.143-64.286zM877.714 374.857h201.143q7.429 0 12.857-5.429t5.429-12.857v-109.714q0-7.429-5.429-12.857t-12.857-5.429h-201.143v-201.143q0-7.429-5.429-12.857t-12.857-5.429h-109.714q-7.429 0-12.857 5.429t-5.429 12.857v201.143h-201.143q-7.429 0-12.857 5.429t-5.429 12.857v109.714q0 7.429 5.429 12.857t12.857 5.429h201.143v201.143q0 7.429 5.429 12.857t12.857 5.429h109.714q7.429 0 12.857-5.429t5.429-12.857v-201.143zM457.143 246.857q0-29.714 21.714-51.429t51.429-21.714h146.286v-136q-38.857-28.571-97.714-28.571h-499.429q-69.143 0-110.857 39.429t-41.714 108.571q0 30.286 2 59.143t8 62.286 15.143 62 24.571 55.714 35.429 46.286 48.857 30.571 63.714 11.429q10.857 0 22.286-9.714 45.143-34.857 88.286-52.286t94-17.429 94 17.429 88.286 52.286q11.429 9.714 22.286 9.714 75.429 0 124-54.857h-127.429q-29.714 0-51.429-21.714t-21.714-51.429v-109.714z" />
<glyph unicode="&#xe94b;" glyph-name="align-left2" d="M1024 192v-73.143q0-14.857-10.857-25.714t-25.714-10.857h-950.857q-14.857 0-25.714 10.857t-10.857 25.714v73.143q0 14.857 10.857 25.714t25.714 10.857h950.857q14.857 0 25.714-10.857t10.857-25.714zM804.571 411.429v-73.143q0-14.857-10.857-25.714t-25.714-10.857h-731.429q-14.857 0-25.714 10.857t-10.857 25.714v73.143q0 14.857 10.857 25.714t25.714 10.857h731.429q14.857 0 25.714-10.857t10.857-25.714zM950.857 630.857v-73.143q0-14.857-10.857-25.714t-25.714-10.857h-877.714q-14.857 0-25.714 10.857t-10.857 25.714v73.143q0 14.857 10.857 25.714t25.714 10.857h877.714q14.857 0 25.714-10.857t10.857-25.714zM731.429 850.286v-73.143q0-14.857-10.857-25.714t-25.714-10.857h-658.286q-14.857 0-25.714 10.857t-10.857 25.714v73.143q0 14.857 10.857 25.714t25.714 10.857h658.286q14.857 0 25.714-10.857t10.857-25.714z" />
<glyph unicode="&#xe94c;" glyph-name="comment-o2" d="M512 740.571q-116.571 0-218-39.714t-161.143-107.143-59.714-145.714q0-64 40.857-122t115.143-100.286l49.714-28.571-15.429-54.857q-13.714-52-40-98.286 86.857 36 157.143 97.714l24.571 21.714 32.571-3.429q39.429-4.571 74.286-4.571 116.571 0 218 39.714t161.143 107.143 59.714 145.714-59.714 145.714-161.143 107.143-218 39.714zM1024 448q0-99.429-68.571-183.714t-186.286-133.143-257.143-48.857q-40 0-82.857 4.571-113.143-100-262.857-138.286-28-8-65.143-12.571h-2.857q-8.571 0-15.429 6t-9.143 15.714v0.571q-1.714 2.286-0.286 6.857t1.143 5.714 2.571 5.429l3.429 5.143 4 4.857 4.571 5.143q4 4.571 17.714 19.714t19.714 21.714 17.714 22.571 18.571 29.143 15.429 33.714 14.857 43.429q-89.714 50.857-141.429 125.714t-51.714 160.571q0 99.429 68.571 183.714t186.286 133.143 257.143 48.857 257.143-48.857 186.286-133.143 68.571-183.714z" />
<glyph unicode="&#xe94d;" glyph-name="comments-o2" d="M402.286 740.571q-87.429 0-163.429-29.714t-120.857-80.571-44.857-109.143q0-46.857 30.286-90.286t85.143-75.429l55.429-32-20-48q19.429 11.429 35.429 22.286l25.143 17.714 30.286-5.714q44.571-8 87.429-8 87.429 0 163.429 29.714t120.857 80.571 44.857 109.143-44.857 109.143-120.857 80.571-163.429 29.714zM402.286 813.714q109.143 0 202-39.143t146.571-106.571 53.714-146.857-53.714-146.857-146.571-106.571-202-39.143q-49.143 0-100.571 9.143-70.857-50.286-158.857-73.143-20.571-5.143-49.143-9.143h-1.714q-6.286 0-11.714 4.571t-6.571 12q-0.571 1.714-0.571 3.714t0.286 3.714 1.143 3.429l1.429 2.857 2 3.143 2.286 2.857 2.571 2.857 2.286 2.571q2.857 3.429 13.143 14.286t14.857 16.857 12.857 16.571 14.286 22 11.714 25.143q-70.857 41.143-111.429 101.143t-40.571 128q0 79.429 53.714 146.857t146.571 106.571 202 39.143zM872 145.714q5.714-13.714 11.714-25.143t14.286-22 12.857-16.571 14.857-16.857 13.143-14.286q0.571-0.571 2.286-2.571t2.571-2.857 2.286-2.857 2-3.143l1.429-2.857 1.143-3.429 0.286-3.714-0.571-3.714q-1.714-8-7.429-12.571t-12.571-4q-28.571 4-49.143 9.143-88 22.857-158.857 73.143-51.429-9.143-100.571-9.143-154.857 0-269.714 75.429 33.143-2.286 50.286-2.286 92 0 176.571 25.714t150.857 73.714q71.429 52.571 109.714 121.143t38.286 145.143q0 44-13.143 86.857 73.714-40.571 116.571-101.714t42.857-131.429q0-68.571-40.571-128.286t-111.429-100.857z" />
<glyph unicode="&#xe94e;" glyph-name="film2" d="M182.857 45.714v73.143q0 14.857-10.857 25.714t-25.714 10.857h-73.143q-14.857 0-25.714-10.857t-10.857-25.714v-73.143q0-14.857 10.857-25.714t25.714-10.857h73.143q14.857 0 25.714 10.857t10.857 25.714zM182.857 265.143v73.143q0 14.857-10.857 25.714t-25.714 10.857h-73.143q-14.857 0-25.714-10.857t-10.857-25.714v-73.143q0-14.857 10.857-25.714t25.714-10.857h73.143q14.857 0 25.714 10.857t10.857 25.714zM182.857 484.571v73.143q0 14.857-10.857 25.714t-25.714 10.857h-73.143q-14.857 0-25.714-10.857t-10.857-25.714v-73.143q0-14.857 10.857-25.714t25.714-10.857h73.143q14.857 0 25.714 10.857t10.857 25.714zM768 45.714v292.571q0 14.857-10.857 25.714t-25.714 10.857h-438.857q-14.857 0-25.714-10.857t-10.857-25.714v-292.571q0-14.857 10.857-25.714t25.714-10.857h438.857q14.857 0 25.714 10.857t10.857 25.714zM182.857 704v73.143q0 14.857-10.857 25.714t-25.714 10.857h-73.143q-14.857 0-25.714-10.857t-10.857-25.714v-73.143q0-14.857 10.857-25.714t25.714-10.857h73.143q14.857 0 25.714 10.857t10.857 25.714zM987.429 45.714v73.143q0 14.857-10.857 25.714t-25.714 10.857h-73.143q-14.857 0-25.714-10.857t-10.857-25.714v-73.143q0-14.857 10.857-25.714t25.714-10.857h73.143q14.857 0 25.714 10.857t10.857 25.714zM768 484.571v292.571q0 14.857-10.857 25.714t-25.714 10.857h-438.857q-14.857 0-25.714-10.857t-10.857-25.714v-292.571q0-14.857 10.857-25.714t25.714-10.857h438.857q14.857 0 25.714 10.857t10.857 25.714zM987.429 265.143v73.143q0 14.857-10.857 25.714t-25.714 10.857h-73.143q-14.857 0-25.714-10.857t-10.857-25.714v-73.143q0-14.857 10.857-25.714t25.714-10.857h73.143q14.857 0 25.714 10.857t10.857 25.714zM987.429 484.571v73.143q0 14.857-10.857 25.714t-25.714 10.857h-73.143q-14.857 0-25.714-10.857t-10.857-25.714v-73.143q0-14.857 10.857-25.714t25.714-10.857h73.143q14.857 0 25.714 10.857t10.857 25.714zM987.429 704v73.143q0 14.857-10.857 25.714t-25.714 10.857h-73.143q-14.857 0-25.714-10.857t-10.857-25.714v-73.143q0-14.857 10.857-25.714t25.714-10.857h73.143q14.857 0 25.714 10.857t10.857 25.714zM1060.571 795.429v-768q0-37.714-26.857-64.571t-64.571-26.857h-914.286q-37.714 0-64.571 26.857t-26.857 64.571v768q0 37.714 26.857 64.571t64.571 26.857h914.286q37.714 0 64.571-26.857t26.857-64.571z" />
<glyph unicode="&#xe94f;" glyph-name="gift2" d="M603.429 185.143v409.143h-182.857v-409.143q0-14.286 10.286-22t26.286-7.714h109.714q16 0 26.286 7.714t10.286 22zM342.857 667.429h111.429l-72 92q-14.857 17.714-39.429 17.714-22.857 0-38.857-16t-16-38.857 16-38.857 38.857-16zM736 722.286q0 22.857-16 38.857t-38.857 16q-24.571 0-39.429-17.714l-71.429-92h110.857q22.857 0 38.857 16t16 38.857zM950.857 576v-182.857q0-8-5.143-13.143t-13.143-5.143h-54.857v-237.714q0-22.857-16-38.857t-38.857-16h-621.714q-22.857 0-38.857 16t-16 38.857v237.714h-54.857q-8 0-13.143 5.143t-5.143 13.143v182.857q0 8 5.143 13.143t13.143 5.143h251.429q-53.143 0-90.571 37.429t-37.429 90.571 37.429 90.571 90.571 37.429q61.143 0 96-44l73.143-94.286 73.143 94.286q34.857 44 96 44 53.143 0 90.571-37.429t37.429-90.571-37.429-90.571-90.571-37.429h251.429q8 0 13.143-5.143t5.143-13.143z" />
<glyph unicode="&#xe950;" glyph-name="heart22" d="M512 9.143q-14.857 0-25.143 10.286l-356.571 344q-5.714 4.571-15.714 14.857t-31.714 37.429-38.857 55.714-30.571 69.143-13.429 78.857q0 125.714 72.571 196.571t200.571 70.857q35.429 0 72.286-12.286t68.571-33.143 54.571-39.143 43.429-38.857q20.571 20.571 43.429 38.857t54.571 39.143 68.571 33.143 72.286 12.286q128 0 200.571-70.857t72.571-196.571q0-126.286-130.857-257.143l-356-342.857q-10.286-10.286-25.143-10.286z" />
<glyph unicode="&#xe951;" glyph-name="lightbulb-o2" d="M640 630.857q0-7.429-5.429-12.857t-12.857-5.429-12.857 5.429-5.429 12.857q0 26.286-30.857 40.571t-60.571 14.286q-7.429 0-12.857 5.429t-5.429 12.857 5.429 12.857 12.857 5.429q28.571 0 56.857-9.143t49.714-30.857 21.429-51.429zM731.429 630.857q0 41.143-19.714 76.571t-51.429 58-70.286 35.429-78 12.857-78-12.857-70.286-35.429-51.429-58-19.714-76.571q0-57.714 38.857-102.857 5.714-6.286 17.429-18.857t17.429-18.857q73.143-87.429 80.571-170.286h130.286q7.429 82.857 80.571 170.286 5.714 6.286 17.429 18.857t17.429 18.857q38.857 45.143 38.857 102.857zM804.571 630.857q0-88.571-58.857-153.143-25.714-28-42.571-49.714t-34-54.571-19.429-61.429q26.857-16 26.857-46.857 0-21.143-14.286-36.571 14.286-15.429 14.286-36.571 0-29.714-25.714-46.286 7.429-13.143 7.429-26.857 0-26.286-18-40.571t-44.286-14.286q-11.429-25.143-34.286-40t-49.714-14.857-49.714 14.857-34.286 40q-26.286 0-44.286 14.286t-18 40.571q0 13.714 7.429 26.857-25.714 16.571-25.714 46.286 0 21.143 14.286 36.571-14.286 15.429-14.286 36.571 0 30.857 26.857 46.857-2.286 28.571-19.429 61.429t-34 54.571-42.571 49.714q-58.857 64.571-58.857 153.143 0 56.571 25.429 105.429t66.857 81.143 93.714 50.857 106.571 18.571 106.571-18.571 93.714-50.857 66.857-81.143 25.429-105.429z" />
<glyph unicode="&#xe952;" glyph-name="search3" d="M694.857 484.571q0 105.714-75.143 180.857t-180.857 75.143-180.857-75.143-75.143-180.857 75.143-180.857 180.857-75.143 180.857 75.143 75.143 180.857zM987.429 9.143q0-29.714-21.714-51.429t-51.429-21.714q-30.857 0-51.429 21.714l-196 195.429q-102.286-70.857-228-70.857-81.714 0-156.286 31.714t-128.571 85.714-85.714 128.571-31.714 156.286 31.714 156.286 85.714 128.571 128.571 85.714 156.286 31.714 156.286-31.714 128.571-85.714 85.714-128.571 31.714-156.286q0-125.714-70.857-228l196-196q21.143-21.143 21.143-51.429z" />
<glyph unicode="&#xe953;" glyph-name="tags22" d="M219.429 704q0 30.286-21.429 51.714t-51.714 21.429-51.714-21.429-21.429-51.714 21.429-51.714 51.714-21.429 51.714 21.429 21.429 51.714zM829.143 374.857q0-30.286-21.143-51.429l-280.571-281.143q-22.286-21.143-52-21.143-30.286 0-51.429 21.143l-408.571 409.143q-21.714 21.143-36.857 57.714t-15.143 66.857v237.714q0 29.714 21.714 51.429t51.429 21.714h237.714q30.286 0 66.857-15.143t58.286-36.857l408.571-408q21.143-22.286 21.143-52zM1048.571 374.857q0-30.286-21.143-51.429l-280.571-281.143q-22.286-21.143-52-21.143-20.571 0-33.714 8t-30.286 25.714l268.571 268.571q21.143 21.143 21.143 51.429 0 29.714-21.143 52l-408.571 408q-21.714 21.714-58.286 36.857t-66.857 15.143h128q30.286 0 66.857-15.143t58.286-36.857l408.571-408q21.143-22.286 21.143-52z" />
<glyph unicode="&#xe954;" glyph-name="thumbs-up2" d="M182.857 192q0 14.857-10.857 25.714t-25.714 10.857q-15.429 0-26-10.857t-10.571-25.714q0-15.429 10.571-26t26-10.571q14.857 0 25.714 10.571t10.857 26zM274.286 484.571v-365.714q0-14.857-10.857-25.714t-25.714-10.857h-164.571q-14.857 0-25.714 10.857t-10.857 25.714v365.714q0 14.857 10.857 25.714t25.714 10.857h164.571q14.857 0 25.714-10.857t10.857-25.714zM950.857 484.571q0-49.143-31.429-85.143 8.571-25.143 8.571-43.429 1.714-43.429-24.571-78.286 9.714-32 0-66.857-8.571-32.571-30.857-53.714 5.143-64-28-103.429-36.571-43.429-112.571-44.571h-73.714q-37.714 0-82.286 8.857t-69.429 16.571-68.857 22.571q-70.286 24.571-90.286 25.143-14.857 0.571-25.714 11.143t-10.857 25.429v366.286q0 14.286 10.286 24.857t24.571 11.714q13.714 1.143 43.429 33.714t57.714 69.143q38.857 49.714 57.714 68.571 10.286 10.286 17.714 27.429t10 27.714 7.714 34.571q4 22.286 7.143 34.857t11.143 29.714 19.429 28.571q10.857 10.857 25.714 10.857 26.286 0 47.143-6t34.286-14.857 22.857-23.143 13.714-25.714 6.857-28.571 2.857-25.714 0.286-22.286q0-21.714-5.429-43.429t-10.857-34.286-15.714-32q-1.714-3.429-5.714-10.286t-6.286-12.571-4.571-13.714h158.286q44.571 0 77.143-32.571t32.571-77.143z" />
<glyph unicode="&#xe955;" glyph-name="trophy22" d="M298.286 455.429q-42.286 92.571-42.286 212h-146.286v-54.857q0-44.571 54-92.571t134.571-64.571zM914.286 612.571v54.857h-146.286q0-119.429-42.286-212 80.571 16.571 134.571 64.571t54 92.571zM987.429 685.714v-73.143q0-40.571-23.714-81.714t-64-74.286-98.857-55.714-123.143-25.429q-24-30.857-54.286-54.286-21.714-19.429-30-41.429t-8.286-51.143q0-30.857 17.429-52t55.714-21.143q42.857 0 76.286-26t33.429-65.429v-36.571q0-8-5.143-13.143t-13.143-5.143h-475.429q-8 0-13.143 5.143t-5.143 13.143v36.571q0 39.429 33.429 65.429t76.286 26q38.286 0 55.714 21.143t17.429 52q0 29.143-8.286 51.143t-30 41.429q-30.286 23.429-54.286 54.286-64.571 2.857-123.143 25.429t-98.857 55.714-64 74.286-23.714 81.714v73.143q0 22.857 16 38.857t38.857 16h164.571v54.857q0 37.714 26.857 64.571t64.571 26.857h329.143q37.714 0 64.571-26.857t26.857-64.571v-54.857h164.571q22.857 0 38.857-16t16-38.857z" />
<glyph unicode="&#xe956;" glyph-name="video-camera2" d="M1024 758.857v-621.714q0-24-22.286-33.714-7.429-2.857-14.286-2.857-15.429 0-25.714 10.857l-230.286 230.286v-94.857q0-68-48.286-116.286t-116.286-48.286h-402.286q-68 0-116.286 48.286t-48.286 116.286v402.286q0 68 48.286 116.286t116.286 48.286h402.286q68 0 116.286-48.286t48.286-116.286v-94.286l230.286 229.714q10.286 10.857 25.714 10.857 6.857 0 14.286-2.857 22.286-9.714 22.286-33.714z" />
<glyph unicode="&#xe957;" glyph-name="chevron-circle-down2" d="M537.714 217.714l259.429 259.429q10.857 10.857 10.857 25.714t-10.857 25.714l-58.286 58.286q-10.857 10.857-25.714 10.857t-25.714-10.857l-175.429-175.429-175.429 175.429q-10.857 10.857-25.714 10.857t-25.714-10.857l-58.286-58.286q-10.857-10.857-10.857-25.714t10.857-25.714l259.429-259.429q10.857-10.857 25.714-10.857t25.714 10.857zM950.857 448q0-119.429-58.857-220.286t-159.714-159.714-220.286-58.857-220.286 58.857-159.714 159.714-58.857 220.286 58.857 220.286 159.714 159.714 220.286 58.857 220.286-58.857 159.714-159.714 58.857-220.286z" />
<glyph unicode="&#xe958;" glyph-name="chevron-circle-up2" d="M738.857 309.143l58.286 58.286q10.857 10.857 10.857 25.714t-10.857 25.714l-259.429 259.429q-10.857 10.857-25.714 10.857t-25.714-10.857l-259.429-259.429q-10.857-10.857-10.857-25.714t10.857-25.714l58.286-58.286q10.857-10.857 25.714-10.857t25.714 10.857l175.429 175.429 175.429-175.429q10.857-10.857 25.714-10.857t25.714 10.857zM950.857 448q0-119.429-58.857-220.286t-159.714-159.714-220.286-58.857-220.286 58.857-159.714 159.714-58.857 220.286 58.857 220.286 159.714 159.714 220.286 58.857 220.286-58.857 159.714-159.714 58.857-220.286z" />
<glyph unicode="&#xe959;" glyph-name="question" d="M585.143 173.714v109.714q0 8-5.143 13.143t-13.143 5.143h-109.714q-8 0-13.143-5.143t-5.143-13.143v-109.714q0-8 5.143-13.143t13.143-5.143h109.714q8 0 13.143 5.143t5.143 13.143zM731.429 557.714q0 50.286-31.714 93.143t-79.143 66.286-97.143 23.429q-138.857 0-212-121.714-8.571-13.714 4.571-24l75.429-57.143q4-3.429 10.857-3.429 9.143 0 14.286 6.857 30.286 38.857 49.143 52.571 19.429 13.714 49.143 13.714 27.429 0 48.857-14.857t21.429-33.714q0-21.714-11.429-34.857t-38.857-25.714q-36-16-66-49.429t-30-71.714v-20.571q0-8 5.143-13.143t13.143-5.143h109.714q8 0 13.143 5.143t5.143 13.143q0 10.857 12.286 28.286t31.143 28.286q18.286 10.286 28 16.286t26.286 20 25.429 27.429 16 34.571 7.143 46.286zM950.857 448q0-119.429-58.857-220.286t-159.714-159.714-220.286-58.857-220.286 58.857-159.714 159.714-58.857 220.286 58.857 220.286 159.714 159.714 220.286 58.857 220.286-58.857 159.714-159.714 58.857-220.286z" />
<glyph unicode="&#xe95a;" glyph-name="lock" d="M365.714 521.143h292.571v109.714q0 60.571-42.857 103.429t-103.429 42.857-103.429-42.857-42.857-103.429v-109.714zM841.143 466.286v-329.143q0-22.857-16-38.857t-38.857-16h-548.571q-22.857 0-38.857 16t-16 38.857v329.143q0 22.857 16 38.857t38.857 16h18.286v109.714q0 105.143 75.429 180.571t180.571 75.429 180.571-75.429 75.429-180.571v-109.714h18.286q22.857 0 38.857-16t16-38.857z" />
<glyph unicode="&#xe95b;" glyph-name="unlock" d="M987.429 630.857v-146.286q0-14.857-10.857-25.714t-25.714-10.857h-36.571q-14.857 0-25.714 10.857t-10.857 25.714v146.286q0 60.571-42.857 103.429t-103.429 42.857-103.429-42.857-42.857-103.429v-109.714h54.857q22.857 0 38.857-16t16-38.857v-329.143q0-22.857-16-38.857t-38.857-16h-548.571q-22.857 0-38.857 16t-16 38.857v329.143q0 22.857 16 38.857t38.857 16h384v109.714q0 105.714 75.143 180.857t180.857 75.143 180.857-75.143 75.143-180.857z" />
<glyph unicode="&#xe95c;" glyph-name="award" d="M833.829 469.943l82.895 104.838-82.895 104.838 7.314 134.095-129.219 34.133-73.143 112.152-124.343-48.762-124.343 48.762-73.143-112.152-129.219-34.133 7.314-134.095-85.333-104.838 82.895-104.838-7.314-134.095 73.143-19.505v-385.219l253.562 146.286 253.562-146.286v385.219l73.143 19.505-4.876 134.095zM514.438 143.238l-197.486-114.59v273.067l73.143-109.714 124.343 48.762 124.343-48.762 73.143 109.714v-270.629l-197.486 112.152z" />
<glyph unicode="&#xe95d;" glyph-name="categories" d="M128 405.333h85.333v85.333h-85.333v-85.333zM128 234.667h85.333v85.333h-85.333v-85.333zM128 576h85.333v85.333h-85.333v-85.333zM298.667 405.333h597.333v85.333h-597.333v-85.333zM298.667 234.667h597.333v85.333h-597.333v-85.333zM298.667 661.333v-85.333h597.333v85.333h-597.333z" />
<glyph unicode="&#xe95e;" glyph-name="chat" d="M853.333 874.667h-682.667c-46.933 0-85.333-38.4-85.333-85.333v-768l170.667 170.667h597.333c46.933 0 85.333 38.4 85.333 85.333v512c0 46.933-38.4 85.333-85.333 85.333zM853.333 277.333h-597.333l-85.333-85.333v597.333h682.667v-512z" />
<glyph unicode="&#xe95f;" glyph-name="favorite" d="M704 832c-74.24 0-145.493-34.56-192-89.173-46.507 54.613-117.76 89.173-192 89.173-131.413 0-234.667-103.253-234.667-234.667 0-161.28 145.067-292.693 364.8-492.373l61.867-55.893 61.867 56.32c219.733 199.253 364.8 330.667 364.8 491.947 0 131.413-103.253 234.667-234.667 234.667zM516.267 168.533l-4.267-4.267-4.267 4.267c-203.093 183.893-337.067 305.493-337.067 428.8 0 85.333 64 149.333 149.333 149.333 65.707 0 129.707-42.24 152.32-100.693h79.787c22.187 58.453 86.187 100.693 151.893 100.693 85.333 0 149.333-64 149.333-149.333 0-123.307-133.973-244.907-337.067-428.8z" />
<glyph unicode="&#xe960;" glyph-name="forum" d="M896 704h-85.333v-384h-554.667v-85.333c0-23.467 19.2-42.667 42.667-42.667h469.333l170.667-170.667v640c0 23.467-19.2 42.667-42.667 42.667zM725.333 448v384c0 23.467-19.2 42.667-42.667 42.667h-554.667c-23.467 0-42.667-19.2-42.667-42.667v-597.333l170.667 170.667h426.667c23.467 0 42.667 19.2 42.667 42.667z" />
<glyph unicode="&#xe961;" glyph-name="new" d="M256 874.667c-46.933 0-84.907-38.4-84.907-85.333l-0.427-682.667c0-46.933 37.973-85.333 84.907-85.333h512.427c46.933 0 85.333 38.4 85.333 85.333v512l-256 256h-341.333zM554.667 576v234.667l234.667-234.667h-234.667z" />
<glyph unicode="&#xe962;" glyph-name="popular" d="M938.667 565.76l-306.773 26.453-119.893 282.453-119.893-282.88-306.773-26.027 232.96-201.813-69.973-299.947 263.68 159.147 263.68-159.147-69.547 299.947 232.533 201.813zM512 302.933l-160.427-96.853 42.667 182.613-141.653 122.88 186.88 16.213 72.533 171.947 72.96-172.373 186.88-16.213-141.653-122.88 42.667-182.613-160.853 97.28z" />
<glyph unicode="&#xe963;" glyph-name="sponsor-1" d="M853.333 789.333h-682.667v-85.333h682.667v85.333zM896 362.667v85.333l-42.667 213.333h-682.667l-42.667-213.333v-85.333h42.667v-256h426.667v256h170.667v-256h85.333v256h42.667zM512 192h-256v170.667h256v-170.667z" />
<glyph unicode="&#xe964;" glyph-name="sponsor-2" d="M725.333 512v149.333c0 23.467-19.2 42.667-42.667 42.667h-512c-23.467 0-42.667-19.2-42.667-42.667v-426.667c0-23.467 19.2-42.667 42.667-42.667h512c23.467 0 42.667 19.2 42.667 42.667v149.333l170.667-170.667v469.333l-170.667-170.667z" />
<glyph unicode="&#xe965;" glyph-name="sponsor-3" d="M768 832v-85.333h-85.333v85.333h-341.333v-85.333h-85.333v85.333h-85.333v-768h85.333v85.333h85.333v-85.333h341.333v85.333h85.333v-85.333h85.333v768h-85.333zM341.333 234.667h-85.333v85.333h85.333v-85.333zM341.333 405.333h-85.333v85.333h85.333v-85.333zM341.333 576h-85.333v85.333h85.333v-85.333zM768 234.667h-85.333v85.333h85.333v-85.333zM768 405.333h-85.333v85.333h85.333v-85.333zM768 576h-85.333v85.333h85.333v-85.333z" />
<glyph unicode="&#xe966;" glyph-name="support" d="M905.309 755.2l-65.164 65.164-83.782-83.782 65.164-65.164zM465.455 936.727h93.091v-137.309h-93.091v137.309zM884.364 473.6h139.636v-93.091h-139.636v93.091zM372.364 185.018v-223.418h279.273v223.418c83.782 48.873 139.636 137.309 139.636 242.036 0 153.6-125.673 279.273-279.273 279.273s-279.273-125.673-279.273-279.273c0-102.4 55.855-193.164 139.636-242.036zM0 473.6h139.636v-93.091h-139.636v93.091zM267.636 736.582l-83.782 83.782-65.164-65.164 83.782-83.782z" />
<glyph unicode="&#xe967;" glyph-name="tags-ic" d="M913.493 465.92l-384 384c-15.36 15.36-36.693 24.747-60.16 24.747h-298.667c-46.933 0-85.333-38.4-85.333-85.333v-298.667c0-23.467 9.387-44.8 25.173-60.587l384-384c15.36-15.36 36.693-24.747 60.16-24.747s44.8 9.387 60.16 25.173l298.667 298.667c15.787 15.36 25.173 36.693 25.173 60.16s-9.813 45.227-25.173 60.587zM234.667 661.333c-35.413 0-64 28.587-64 64s28.587 64 64 64 64-28.587 64-64-28.587-64-64-64z" />
<glyph unicode="&#xe968;" glyph-name="mail" d="M170.080 663.235l247.52-215.235-247.581-215.287c-6.206 5.878-10.019 14.235-10.019 23.507v383.562c0 9.253 3.874 17.582 10.080 23.454zM885.981 663.287c6.206-5.878 10.019-14.235 10.019-23.507v-383.562c0-9.252-3.874-17.582-10.080-23.454l-247.52 215.235 247.581 215.287zM614.459 427.181l233.541-203.181h-640l233.541 203.181 86.459-75.181 86.459 75.181zM192.115 704c-35.41 0-64.115-28.624-64.115-63.81v-384.38c0-35.241 28.472-63.81 64.115-63.81h671.77c35.41 0 64.115 28.624 64.115 63.81v384.38c0 35.241-28.472 63.81-64.115 63.81h-671.77zM528 393.6l-320 278.4h640l-320-278.4z" />
<glyph unicode="&#xe969;" glyph-name="caret" horiz-adv-x="1030" d="M37.912 718.775l-37.916-37.9 511.727-511.736 518.28 518.28-39.451 39.442-480.365-480.365-472.278 472.278z" />
<glyph unicode="&#xe96a;" glyph-name="newspaper" d="M896 704v128h-896v-704c0-35.346 28.654-64 64-64h864c53.022 0 96 42.978 96 96v544h-128zM832 128h-768v640h768v-640zM128 640h640v-64h-640zM512 512h256v-64h-256zM512 384h256v-64h-256zM512 256h192v-64h-192zM128 512h320v-320h-320z" />
<glyph unicode="&#xe96b;" glyph-name="hide-icon" d="M983.398-64h-942.746c-22.382 0.173-40.48 18.271-40.653 40.636v942.71c0.173 22.382 18.271 40.48 40.636 40.653h942.762c22.43-0.029 40.602-18.219 40.602-40.653 0 0 0 0 0 0v0-942.694c0-22.434-18.172-40.624-40.599-40.653h-0.003zM81.254 18.637h353.28v860.16h-353.28v-860.16zM942.746 878.797h-427.264v-860.16h427.264v860.16zM600.934 480.973l166.707 166.707c7.528 7.528 17.927 12.184 29.414 12.184 22.974 0 41.598-18.624 41.598-41.598 0-11.487-4.656-21.887-12.184-29.414v0l-137.267-137.267 144.282-144.333c7.528-7.528 12.184-17.927 12.184-29.414 0-22.974-18.624-41.598-41.598-41.598-11.487 0-21.887 4.656-29.414 12.184v0l-175.104 175.104c-7.765 7.385-12.595 17.794-12.595 29.33 0 0.039 0 0.077 0 0.116v-0.006c0.279 11.33 5.65 21.351 13.902 27.897l0.076 0.058zM329.216 629.453h-135.885c-0.046-0.001-0.1-0.001-0.155-0.001-6.108 0-11.059 4.951-11.059 11.059 0 0.054 0 0.109 0.001 0.163v-0.008 135.885c-0.001 0.046-0.001 0.101-0.001 0.156 0 6.080 4.928 11.008 11.008 11.008 0.072 0 0.145-0.001 0.217-0.002h135.874c0.061 0.001 0.134 0.002 0.206 0.002 6.080 0 11.008-4.928 11.008-11.008 0-0.055 0-0.109-0.001-0.164v0.008-135.885c-0.385-6.042-5.176-10.851-11.176-11.262l-0.037-0.002zM329.216 368.896h-135.885c-0.046-0.001-0.1-0.001-0.155-0.001-6.108 0-11.059 4.951-11.059 11.059 0 0.054 0 0.109 0.001 0.163v-0.008 135.885c-0.001 0.046-0.001 0.1-0.001 0.155 0 6.108 4.951 11.059 11.059 11.059 0.054 0 0.109 0 0.163-0.001h135.877c0.046 0.001 0.1 0.001 0.155 0.001 6.108 0 11.059-4.951 11.059-11.059 0-0.054 0-0.109-0.001-0.163v0.008-135.885c-0.912-5.8-5.42-10.325-11.135-11.254l-0.078-0.010zM329.216 109.773h-135.885c-0.046-0.001-0.1-0.001-0.155-0.001-6.108 0-11.059 4.951-11.059 11.059 0 0.054 0 0.109 0.001 0.163v-0.008 135.885c-0.001 0.046-0.001 0.101-0.001 0.156 0 6.080 4.928 11.008 11.008 11.008 0.072 0 0.145-0.001 0.217-0.002h135.874c0.046 0.001 0.1 0.001 0.154 0.001 6.108 0 11.059-4.951 11.059-11.059 0-0.036 0-0.073-0.001-0.109v0.006-135.885c-0.385-6.042-5.176-10.851-11.176-11.262l-0.037-0.002z" />
<glyph unicode="&#xe96c;" glyph-name="settings" horiz-adv-x="1280" d="M0 887.744v-102.784h130.24v102.784h-130.24zM0 497.664v-102.848h455.808v102.848h-455.808zM1280 784.96v102.784h-791.936v-102.784h791.936zM1280 394.56v102.848h-458.944v-102.848h458.944zM1280 4.48v103.040h-125.824v-102.784h125.824zM0 107.264v-102.784h776.384v103.040h-776.384zM514.624 569.664v-247.36h250.688v247.296h-250.688zM187.2 960.064v-247.424h250.688v247.36h-250.688zM1092.8 183.424h-250.752v-247.424h250.752v247.36z" />
<glyph unicode="&#xe96d;" glyph-name="add-friend" d="M726.552 521.143c-48.762 0-97.524-9.752-136.533-34.133 68.267 92.648 58.514 234.057 58.514 248.686-4.876 112.152-58.514 165.79-102.4 190.171-34.133 24.381-73.143 34.133-112.152 34.133h-4.876c-24.381 0-68.267-4.876-112.152-29.257s-97.524-78.019-102.4-190.171c0-14.629-14.629-170.667 68.267-263.314 34.133-39.010 87.771-63.39 146.286-63.39h4.876c29.257 0 53.638 4.876 78.019 14.629-48.762-53.638-78.019-121.905-78.019-199.924 0-87.771 39.010-165.79 102.4-219.429-34.133-4.876-63.39-4.876-102.4-4.876-199.924 0-336.457 68.267-370.59 87.771-4.876 14.629-4.876 43.886-4.876 63.39 0 0 0 4.876 0 4.876 0 48.762 4.876 102.4 53.638 117.029 102.4 29.257 190.171 82.895 190.171 87.771 14.629 9.752 14.629 24.381 4.876 39.010s-24.381 14.629-39.010 4.876c0 0-78.019-53.638-175.543-78.019 0 0 0 0 0 0-87.771-29.257-92.648-126.781-92.648-170.667 0 0 0-4.876 0-4.876v0c0-9.752 0-68.267 9.752-92.648 0-4.876 4.876-9.752 9.752-14.629s156.038-102.4 409.6-102.4c63.39 0 121.905 4.876 175.543 14.629 39.010-14.629 78.019-24.381 121.905-24.381 165.79 0 297.448 131.657 297.448 292.571s-131.657 292.571-297.448 292.571zM429.105 472.381v0c-48.762 0-82.895 14.629-112.152 43.886-63.39 73.143-48.762 214.552-48.762 219.429 0 0 0 0 0 0 4.876 151.162 112.152 165.79 160.914 165.79h4.876c58.514 0 151.162-24.381 160.914-165.79 0 0 0 0 0 0s14.629-146.286-53.638-219.429c-29.257-29.257-63.39-43.886-112.152-43.886zM897.219 189.562h-126.781v-126.781h-87.771v126.781h-126.781v87.771h126.781v126.781h87.771v-126.781h126.781v-87.771z" />
<glyph unicode="&#xe96e;" glyph-name="friend" horiz-adv-x="853" d="M421.79 407.771h6.095c60.952 1.219 109.714 23.162 146.286 64.61 80.457 91.429 67.048 249.905 64.61 264.533-3.657 113.371-56.076 167.010-98.743 192.61-31.695 18.286-69.486 29.257-112.152 30.476h-3.657c-23.162 0-68.267-3.657-112.152-29.257s-96.305-79.238-102.4-192.61c-1.219-14.629-14.629-173.105 64.61-264.533 37.79-42.667 87.771-64.61 147.505-65.829zM266.971 732.038c0 1.219 0 1.219 0 1.219 6.095 152.381 112.152 169.448 157.257 169.448h2.438c56.076-1.219 151.162-24.381 157.257-168.229 0-1.219 0-1.219 0-1.219 0-1.219 14.629-145.067-51.2-221.867-25.6-30.476-60.952-45.105-107.276-45.105h-2.438c-45.105 0-80.457 15.848-107.276 45.105-63.39 74.362-49.981 219.429-48.762 220.648zM852.114 145.676v0c0 2.438 0 3.657 0 6.095-1.219 41.448-3.657 140.19-93.867 171.886-1.219 0-1.219 0-2.438 1.219-93.867 24.381-171.886 79.238-171.886 80.457-12.19 8.533-30.476 6.095-39.010-7.314s-6.095-30.476 7.314-40.229c3.657-2.438 86.552-60.952 188.952-88.99 48.762-17.067 53.638-70.705 54.857-118.248 0-2.438 0-3.657 0-4.876 0-19.505-1.219-48.762-4.876-65.829-34.133-19.505-165.79-86.552-365.714-86.552s-332.8 67.048-365.714 86.552c-3.657 17.067-4.876 46.324-4.876 65.829 0 1.219 0 3.657 0 4.876 1.219 48.762 7.314 101.181 54.857 118.248 103.619 26.819 186.514 86.552 188.952 88.99 12.19 8.533 15.848 26.819 7.314 40.229s-26.819 15.848-39.010 7.314c-1.219-1.219-78.019-56.076-171.886-80.457-1.219 0-1.219 0-2.438-1.219-88.99-31.695-91.429-129.219-92.648-170.667 0-2.438 0-3.657 0-4.876v-1.219c0-10.971 0-67.048 10.971-96.305 2.438-6.095 6.095-9.752 10.971-13.41 4.876-4.876 154.819-101.181 404.724-101.181s398.629 97.524 404.724 101.181c4.876 3.657 8.533 7.314 10.971 13.41 10.971 28.038 9.752 84.114 9.752 95.086z" />
<glyph unicode="&#xe96f;" glyph-name="write" d="M428.138 320.883c0 0-0.883 0 0 0h-211.862c-15.89 0-28.248-12.359-29.131-28.248 0-15.89 12.359-28.248 28.248-29.131 0 0 0.883 0 0.883 0h210.979c15.89 0 28.248 12.359 29.131 28.248 0 16.772-12.359 29.131-28.248 29.131zM215.393 545.986c0 0 0.883 0 0 0h325.738c15.89 0 28.248 12.359 29.131 28.248 0 15.89-12.359 28.248-28.248 29.131 0 0-0.883 0-0.883 0h-324.855c-15.89 0-28.248-12.359-29.131-28.248 0-15.89 12.359-29.131 28.248-29.131zM981.628 948.524c-9.71 6.179-21.186 9.71-31.779 10.593-4.414 0.883-8.828 0.883-13.241 0.883-29.131-0.883-56.497-15.89-72.386-42.372l-25.6-45.903c-1.766-2.648-3.531-5.297-4.414-7.945l-42.372-74.152h-763.586c-15.89 0-28.248-12.359-28.248-28.248v-797.131c0-15.89 12.359-28.248 28.248-28.248 6.179 0 12.359 1.766 16.772 5.297l181.848 135.062h597.628c15.89 0 28.248 12.359 28.248 28.248v452.855l127.117 219.807c2.648 3.531 5.297 7.062 6.179 11.476l25.6 44.138c24.717 39.724 10.593 92.69-30.014 115.641zM797.131 133.738h-579.090c-6.179 0-12.359-1.766-16.772-5.297l-143.89-107.697v712.386h701.793l-178.317-308.966c-1.766-2.648-2.648-5.297-3.531-8.828l-36.193-176.552c-3.531-15.007 7.062-30.014 22.069-33.545 8.828-1.766 17.655 0.883 24.717 6.179l135.062 119.172c2.648 1.766 4.414 4.414 6.179 7.062l68.855 120.055v-323.972zM680.607 371.2l-67.090-60.028 17.655 88.276 240.11 414.897 49.434-28.248-240.11-414.897zM963.090 860.248l-14.124-24.717-49.434 28.248 14.124 24.717c4.414 7.062 10.593 11.476 16.772 13.241 1.766 0.883 3.531 0.883 5.297 0.883 5.297 0 11.476-0.883 16.772-4.414 15.007-7.062 19.421-23.834 10.593-37.959zM428.138 462.124c0 0-0.883 0 0 0h-211.862c-15.89 0-28.248-12.359-29.131-28.248 0-15.89 12.359-28.248 28.248-29.131 0 0 0.883 0 0.883 0h210.979c15.89 0 28.248 12.359 29.131 28.248 0 15.89-12.359 29.131-28.248 29.131z" />
<glyph unicode="&#xe970;" glyph-name="link" d="M870.4 371.2l-97.28 97.28c-25.6 25.6-56.32 35.84-92.16 35.84s-71.68-15.36-97.28-40.96l-40.96 40.96c25.6 25.6 40.96 61.44 40.96 97.28s-15.36 66.56-35.84 92.16l-97.28 92.16c-20.48 25.6-56.32 40.96-92.16 40.96s-66.56-15.36-92.16-35.84l-66.56-71.68c-25.6-25.6-40.96-56.32-40.96-92.16s15.36-66.56 35.84-92.16l97.28-97.28c25.6-25.6 56.32-35.84 92.16-35.84s71.68 15.36 97.28 40.96l40.96-40.96c-25.6-25.6-40.96-61.44-40.96-97.28s15.36-66.56 35.84-92.16l92.16-92.16c25.6-25.6 56.32-40.96 92.16-40.96s66.56 15.36 92.16 35.84l66.56 66.56c25.6 25.6 40.96 56.32 40.96 92.16 5.12 35.84-5.12 71.68-30.72 97.28zM481.28 565.76c-15.36 15.36-25.6 30.72-51.2 30.72-20.48 0-40.96-20.48-40.96-40.96 0-25.6 15.36-35.84 30.72-51.2-10.24-10.24-20.48-15.36-30.72-15.36-15.36 0-25.6 5.12-30.72 10.24l-97.28 97.28c-10.24 10.24-10.24 20.48-10.24 30.72s5.12 20.48 10.24 30.72l66.56 66.56c10.24 10.24 20.48 10.24 30.72 10.24s20.48-5.12 30.72-10.24l92.16-92.16c10.24-10.24 10.24-20.48 10.24-30.72 5.12-15.36 0-25.6-10.24-35.84zM803.84 243.2l-66.56-66.56c-10.24-10.24-20.48-10.24-30.72-10.24s-20.48 5.12-30.72 10.24l-92.16 92.16c-10.24 10.24-10.24 20.48-10.24 30.72 0 15.36 5.12 25.6 15.36 35.84 15.36-15.36 25.6-30.72 51.2-30.72s46.080 20.48 46.080 46.080c0 25.6-15.36 35.84-30.72 51.2 10.24 10.24 20.48 15.36 30.72 15.36s20.48-5.12 30.72-10.24l97.28-97.28c10.24-10.24 10.24-20.48 10.24-30.72-5.12-15.36-10.24-25.6-20.48-35.84z" />
<glyph unicode="&#xe971;" glyph-name="magic" horiz-adv-x="966" d="M708.857 376.286l167.429-167.429-61.143-61.143-167.429 167.429zM964.286 208.857c0 9.714-3.429 18.857-10.286 25.714l-734.857 734.857c-6.857 6.857-16 10.286-25.714 10.286s-18.857-3.429-25.714-10.286l-113.143-113.143c-6.857-6.857-10.286-16-10.286-25.714s3.429-18.857 10.286-25.714l734.857-734.857c6.857-6.857 16-10.286 25.714-10.286s18.857 3.429 25.714 10.286l113.143 113.143c6.857 6.857 10.286 16 10.286 25.714zM192.286 100.286l56 17.143-56 17.143-17.143 56-17.143-56-56-17.143 56-17.143 17.143-56zM392.286 192.857l112 34.286-112 34.286-34.286 112-34.286-112-112-34.286 112-34.286 34.286-112zM923.714 466l56 17.143-56 17.143-17.143 56-17.143-56-56-17.143 56-17.143 17.143-56zM558 100.286l56 17.143-56 17.143-17.143 56-17.143-56-56-17.143 56-17.143 17.143-56z" />
<glyph unicode="&#xe972;" glyph-name="account-plus" d="M640 362.667c-113.92 0-341.333-56.747-341.333-170.667v-85.333h682.667v85.333c0 113.92-227.413 170.667-341.333 170.667zM256 533.333v128h-85.333v-128h-128v-85.333h128v-128h85.333v128h128v85.333zM640 448c94.257 0 170.667 76.41 170.667 170.667v0c0 94.257-76.41 170.667-170.667 170.667v0c-94.257 0-170.667-76.41-170.667-170.667v0c0-94.257 76.41-170.667 170.667-170.667v0z" />
<glyph unicode="&#xe973;" glyph-name="map-marker" d="M512 469.333c-58.91 0-106.667 47.756-106.667 106.667v0c0 58.91 47.756 106.667 106.667 106.667v0c58.91 0 106.667-47.756 106.667-106.667v0c0-58.91-47.756-106.667-106.667-106.667v0zM512 874.667c-164.949 0-298.667-133.718-298.667-298.667v0c0-224 298.667-554.667 298.667-554.667s298.667 330.667 298.667 554.667c0 164.949-133.718 298.667-298.667 298.667v0z" />
<glyph unicode="&#xe974;" glyph-name="checkbox-marked-circle" d="M426.667 234.667l-213.333 213.333 60.16 60.587 153.173-153.173 323.84 323.84 60.16-60.587zM512 874.667c-235.641 0-426.667-191.025-426.667-426.667v0c0-235.641 191.025-426.667 426.667-426.667v0c235.641 0 426.667 191.025 426.667 426.667v0c0 235.641-191.025 426.667-426.667 426.667v0z" />
<glyph unicode="&#xe975;" glyph-name="editor" d="M1017.403 402.327l-66.544 66.336c-8.601 8.722-22.628 8.809-31.227 0l-140.271-140.186-160.475-160.809-124.28 124.406c-8.725 8.766-22.752 8.766-31.394 0l-66.42-66.378c-8.725-8.766-8.725-22.793 0-31.476l206.314-206.48c8.766-8.766 22.961-8.766 31.476 0l382.736 383.112c8.85 8.641 8.85 22.667 0.085 31.475zM306.411 316.037l66.377 66.544c56.734 56.609 155.424 56.693 212.116-0.082l33.814-33.814 151.96 144.777v427.488h-769.479v-940.475h427.488l-122.276 123.070c-58.487 58.695-58.487 153.963 0 212.492zM257.692 835.451h427.488v-85.498h-427.488zM257.692 664.456h427.488v-85.498h-427.488zM172.195 407.963h-85.498v85.498h85.498zM172.195 578.958h-85.498v85.498h85.498zM172.195 749.954h-85.498v85.498h85.498zM257.692 493.461h85.498v-85.498h-85.498z" />
<glyph unicode="&#xe976;" glyph-name="add_circle_outline" d="M554.667 661.333h-85.333v-170.667h-170.667v-85.333h170.667v-170.667h85.333v170.667h170.667v85.333h-170.667v170.667zM512 874.667c-235.52 0-426.667-191.147-426.667-426.667s191.147-426.667 426.667-426.667 426.667 191.147 426.667 426.667-191.147 426.667-426.667 426.667zM512 106.667c-188.16 0-341.333 153.173-341.333 341.333s153.173 341.333 341.333 341.333 341.333-153.173 341.333-341.333-153.173-341.333-341.333-341.333z" />
<glyph unicode="&#xe977;" glyph-name="movie" d="M768 789.333l85.333-170.667h-128l-85.333 170.667h-85.333l85.333-170.667h-128l-85.333 170.667h-85.333l85.333-170.667h-128l-85.333 170.667h-42.667c-46.933 0-84.907-38.4-84.907-85.333l-0.427-512c0-46.933 38.4-85.333 85.333-85.333h682.667c46.933 0 85.333 38.4 85.333 85.333v597.333h-170.667z" />
<glyph unicode="&#xe978;" glyph-name="verified-user" d="M512 917.333l-384-170.667v-256c0-236.8 163.84-458.24 384-512 220.16 53.76 384 275.2 384 512v256l-384 170.667zM426.667 234.667l-170.667 170.667 60.16 60.16 110.507-110.080 281.173 281.173 60.16-60.587-341.333-341.333z" />
<glyph unicode="&#xe979;" glyph-name="file-word" d="M639.808 484.096h44.224l-51.008-226.176-66.304 318.016h-106.56l-77.12-318.016-57.792 318.016h-111.424l113.088-511.872h108.864l76.288 302.72 68.224-302.72h100.352l129.6 511.872h-170.432v-91.84zM917.824 730.944c-22.208 30.272-53.184 65.728-87.168 99.712s-69.44 64.96-99.712 87.168c-51.584 37.824-76.608 42.176-90.944 42.176h-496c-44.096 0-80-35.904-80-80v-864c0-44.096 35.904-80 80-80h736c44.096 0 80 35.904 80 80v624c0 14.336-4.352 39.36-42.176 90.944v0zM785.344 785.344c30.72-30.72 54.784-58.368 72.576-81.344h-153.984v153.92c22.976-17.792 50.688-41.856 81.344-72.576v0zM896 16c0-8.704-7.296-16-16-16h-736c-8.64 0-16 7.296-16 16v864c0 8.64 7.36 16 16 16 0 0 495.936 0 496 0v-224c0-17.664 14.336-32 32-32h224v-624z" />
<glyph unicode="&#xe97a;" glyph-name="file-txt" d="M917.824 730.944c-22.208 30.272-53.184 65.728-87.168 99.712s-69.44 64.96-99.712 87.168c-51.584 37.824-76.608 42.176-90.944 42.176h-496c-44.096 0-80-35.904-80-80v-864c0-44.096 35.904-80 80-80h736c44.096 0 80 35.904 80 80v624c0 14.336-4.352 39.36-42.176 90.944zM785.344 785.344c30.72-30.72 54.784-58.368 72.576-81.344h-153.984v153.92c22.976-17.792 50.688-41.856 81.344-72.576zM896 16c0-8.704-7.296-16-16-16h-736c-8.64 0-16 7.296-16 16v864c0 8.64 7.36 16 16 16 0 0 495.936 0 496 0v-224c0-17.664 14.336-32 32-32h224v-624z" />
<glyph unicode="&#xe97b;" glyph-name="file-rtf" d="M917.824 730.944c-22.208 30.272-53.184 65.728-87.168 99.712s-69.44 64.96-99.712 87.168c-51.584 37.824-76.608 42.176-90.944 42.176h-496c-44.096 0-80-35.904-80-80v-864c0-44.096 35.904-80 80-80h736c44.096 0 80 35.904 80 80v624c0 14.336-4.352 39.36-42.176 90.944zM785.344 785.344c30.72-30.72 54.784-58.368 72.576-81.344h-153.984v153.92c22.976-17.792 50.688-41.856 81.344-72.576zM896 16c0-8.704-7.296-16-16-16h-736c-8.64 0-16 7.296-16 16v864c0 8.64 7.36 16 16 16 0 0 495.936 0 496 0v-224c0-17.664 14.336-32 32-32h224v-624zM736 128h-448c-17.664 0-32 14.336-32 32s14.336 32 32 32h448c17.664 0 32-14.336 32-32s-14.336-32-32-32zM736 256h-448c-17.664 0-32 14.336-32 32s14.336 32 32 32h448c17.664 0 32-14.336 32-32s-14.336-32-32-32zM736 384h-448c-17.664 0-32 14.336-32 32s14.336 32 32 32h448c17.664 0 32-14.336 32-32s-14.336-32-32-32z" />
</font>
</defs>
</svg>
