<?xml version="1.0" encoding="utf-8"?>
<!-- Generator: Adobe Illustrator 19.2.1, SVG Export Plug-In . SVG Version: 6.00 Build 0)  -->
<svg version="1.1" id="Layer_1" xmlns="http://www.w3.org/2000/svg" xmlns:xlink="http://www.w3.org/1999/xlink" x="0px" y="0px"
	 viewBox="0 0 122 32" style="enable-background:new 0 0 122 32;" xml:space="preserve">
<style type="text/css">
	.st0{fill:#4A89F3;}
</style>
<g>
	<path d="M14.4,20.2c0,1.1,0,1.8,1.5,1.8h0.3V23H9.3v-1.1h0.5c1.5,0,1.5-0.7,1.5-1.8V9.9c0-1.2-0.5-1.4-2-1.4V7.4l5.1-1V20.2z"/>
	<path d="M22.3,20.2c0,1.1,0,1.8,1.6,1.8V23h-6.5v-1.1h0.3c1.5,0,1.5-0.7,1.5-1.8v-3.6c0-1.3,0-1.7-1.8-1.7v-1.1l4.9-1V20.2z
		 M22.5,8c0,1-0.8,1.8-1.8,1.8S19,9,19,8c0-1,0.8-1.8,1.8-1.8S22.5,7.1,22.5,8z"/>
	<path d="M29.7,20c0,1.1,0,2,0.8,2c0.9,0,1.5-1.2,1.7-1.6l1,0.5c-0.9,1.9-2.1,2.5-3.6,2.5c-3.1,0-3.1-2.3-3.1-3.5v-5.7h-1.8v-1.1
		c2.4,0,3.7-1.5,4-3.2h1v3.2h3.4v1.1h-3.4V20z"/>
	<path d="M45.1,21.1c-1.1,1.7-2.6,2.3-4.5,2.3c-3.8,0-6.1-2.2-6.1-5.3c0-2.9,2.2-5.4,5.7-5.4c3.5,0,5,2.5,5,5h-7.4
		c0,0.6-0.2,4.4,3.2,4.4c0.4,0,2.1-0.1,3.1-1.6L45.1,21.1z M42.2,16.6c0-0.7,0-2.7-2.2-2.7c-1.5,0-2.2,1.2-2.2,2.7H42.2z"/>
	<path d="M51.5,20.2c0,1.1,0,1.8,1.6,1.8h0.6V23h-7.5v-1.1h0.6c1.5,0,1.5-0.7,1.5-1.8v-3.5c0-1.6-0.3-1.7-2.1-1.7v-1.1l4.7-1
		c0.2,0.8,0.3,2,0.3,2.6c0.6-1.4,2.1-2.6,3.5-2.6c1.4,0,2.1,0.9,2.1,1.9c0,1-0.8,1.5-1.4,1.5c-0.4,0-0.8-0.1-1.2-0.7
		c-0.2-0.3-0.4-0.6-0.8-0.6c-1.4,0-2,1.9-2,3.1V20.2z"/>
	<path d="M63.9,12.7c3.8,0,5.9,2.5,5.9,5.3c0,3.4-2.7,5.4-5.9,5.4c-2.9,0-6-1.7-6-5.3C57.9,14.3,61,12.7,63.9,12.7z M63.9,22.3
		c2.4,0,2.6-2.4,2.6-4.3c0-2.4-0.4-4.1-2.6-4.1c-2.1,0-2.6,1.4-2.6,4.3C61.3,20,61.4,22.3,63.9,22.3z"/>
	<path d="M76.1,20c0,1.1,0,2,0.8,2c0.9,0,1.5-1.2,1.7-1.6l1,0.5c-0.9,1.9-2.1,2.5-3.6,2.5c-3.1,0-3.1-2.3-3.1-3.5v-5.7h-1.8v-1.1
		c2.4,0,3.7-1.5,4-3.2h1v3.2h3.4v1.1h-3.4V20z"/>
	<path d="M85.4,20.2c0,1.1,0,1.8,1.6,1.8V23h-6.5v-1.1h0.3c1.5,0,1.5-0.7,1.5-1.8v-3.6c0-1.3,0-1.7-1.8-1.7v-1.1l4.9-1V20.2z
		 M85.6,8c0,1-0.8,1.8-1.8,1.8S82.1,9,82.1,8c0-1,0.8-1.8,1.8-1.8S85.6,7.1,85.6,8z"/>
	<path d="M99.1,20.6c-1.1,2.1-2.9,2.8-4.7,2.8c-3,0-5.8-1.9-5.8-5.1c0-2.9,2.5-5.5,6.1-5.5c2,0,4.2,0.8,4.2,2.5
		c0,0.7-0.6,1.3-1.3,1.3c-1.1,0-1.2-0.9-1.4-1.6c-0.2-0.8-0.7-1.1-1.5-1.1c-1,0-2.8,0.5-2.8,3.9c0,2.3,0.9,4.4,3.2,4.4
		c1.9,0,2.7-1.5,2.9-2L99.1,20.6z"/>
	<path d="M107.5,15.7c0-1-0.3-1.8-1.9-1.8c-1.3,0-1.7,0.6-1.9,1.6c-0.1,0.4-0.2,1.3-1.4,1.3c-0.6,0-1.3-0.3-1.3-1.1
		c0-1.3,1.3-2.8,5-2.8c3.9,0,4.6,1.6,4.6,3.3v3.8c0,1.2,0,1.8,0.7,1.8c0.4,0,0.8-0.5,0.8-1.1h0.9c0,1.9-1.3,2.8-2.8,2.8
		c-1.4,0-2.3-0.8-2.5-1.6c-1.7,1.3-3.2,1.6-4.1,1.6c-1.7,0-3-0.9-3-2.3c0-2.4,2.4-3.5,6.8-4.6V15.7z M107.5,17.6
		c-3.5,1.1-3.5,2.3-3.5,2.8c0,0.7,0.4,1.2,1.3,1.2c1,0,1.7-0.6,2.2-1V17.6z"/>
</g>
<path class="st0" d="M122.4,31.7h-9v-1.6h2.2c2.7,0,2.8-0.5,2.8-2.4V4c0-1.7,0-2.4-2.8-2.4h-2.2V0h9V31.7z"/>
<path class="st0" d="M0,0l9,0v1.6H6.8C3.9,1.6,3.9,2.3,3.9,4v23.8c0,1.8,0.2,2.4,2.8,2.4H9v1.6H0L0,0z"/>
</svg>
